<?xml version="1.0" standalone="no"?>
<!DOCTYPE svg PUBLIC "-//W3C//DTD SVG 20010904//EN"
 "http://www.w3.org/TR/2001/REC-SVG-20010904/DTD/svg10.dtd">
<svg version="1.0" xmlns="http://www.w3.org/2000/svg"
 width="580.000000pt" height="580.000000pt" viewBox="0 0 580.000000 580.000000"
 preserveAspectRatio="xMidYMid meet">
<metadata>
Created by potrace 1.14, written by Peter Selinger 2001-2017
</metadata>
<g transform="translate(0.000000,580.000000) scale(0.100000,-0.100000)"
fill="#000000" stroke="none">
<path d="M2085 5773 c-16 -2 -45 -6 -63 -9 -33 -5 -33 -6 -18 -30 9 -13 14
-24 11 -24 -4 0 2 -12 13 -27 11 -16 29 -47 40 -70 l20 -43 -70 5 c-39 2 -78
7 -87 9 -9 3 -52 8 -96 11 -44 3 -98 7 -120 9 -22 3 -70 7 -107 10 l-68 7 47
-68 c26 -37 50 -70 53 -73 3 -3 10 -13 15 -22 29 -49 158 -218 189 -247 30
-29 33 -36 23 -55 -7 -11 -14 -23 -17 -26 -6 -6 -101 -120 -113 -135 -4 -5
-18 -22 -30 -36 -13 -15 -45 -54 -72 -88 -26 -33 -52 -61 -57 -61 -5 0 -7 -4
-4 -9 4 -5 3 -11 -1 -13 -9 -3 -52 -53 -98 -112 -16 -21 -35 -44 -40 -50 -6
-6 -26 -31 -45 -56 -50 -64 -48 -63 -70 -89 -11 -13 -29 -44 -41 -68 -20 -41
-21 -50 -10 -92 7 -25 13 -56 14 -68 1 -13 5 -23 9 -23 7 0 3 -193 -6 -229 -3
-13 -13 -47 -23 -75 -9 -28 -16 -54 -15 -58 1 -5 -3 -8 -10 -8 -6 0 -9 -3 -6
-6 4 -3 -21 -60 -54 -127 -87 -177 -218 -454 -218 -462 0 -2 -15 -37 -34 -77
-70 -151 -104 -228 -171 -383 -26 -60 -55 -123 -63 -140 -21 -40 -24 -52 -23
-102 1 -47 36 -113 74 -137 20 -14 139 -56 237 -84 131 -38 180 -52 206 -57
16 -2 54 -12 84 -20 91 -25 210 -30 265 -12 119 41 188 144 201 302 11 141 34
256 56 283 6 6 8 12 4 12 -9 0 30 75 67 130 29 43 98 115 145 152 23 18 119
71 137 75 5 1 42 11 80 22 79 23 224 23 307 1 42 -11 185 -10 228 2 143 39
222 95 350 247 25 29 52 61 61 70 8 9 37 43 65 76 27 33 51 62 54 65 35 33
250 330 304 420 22 36 44 68 50 72 7 5 7 8 1 8 -7 0 -7 3 0 8 9 6 79 137 81
151 0 3 10 28 22 54 12 27 22 54 22 61 0 7 4 16 9 21 18 19 59 209 65 302 2
28 6 55 8 60 2 4 4 23 3 40 -1 31 6 37 11 10 1 -7 12 -46 23 -88 12 -41 23
-93 25 -115 3 -21 5 -39 6 -39 1 0 3 -35 4 -77 1 -43 -1 -78 -5 -78 -3 0 -5
-10 -4 -21 2 -34 -14 -124 -31 -177 -9 -26 -18 -51 -19 -57 -14 -58 -115 -254
-179 -345 -41 -59 -32 -47 -149 -195 -56 -72 -126 -162 -156 -200 -30 -39 -65
-80 -78 -92 -13 -12 -23 -26 -23 -32 0 -5 -3 -11 -8 -13 -4 -1 -28 -28 -52
-58 -25 -30 -47 -57 -50 -60 -3 -3 -39 -45 -80 -95 -41 -49 -86 -103 -101
-120 -14 -16 -63 -73 -109 -125 -45 -52 -112 -128 -149 -169 -36 -40 -77 -86
-91 -101 -243 -269 -351 -382 -731 -762 l-358 -357 172 -177 c95 -98 235 -241
311 -317 l139 -140 80 84 c43 46 134 143 201 214 68 72 159 168 202 214 44 46
97 103 119 125 22 23 101 106 175 185 74 79 153 163 175 185 362 377 616 656
751 825 10 13 31 38 47 54 15 17 27 33 27 36 0 3 18 26 40 51 43 49 40 46 90
110 19 25 37 47 40 50 3 3 18 23 35 45 16 22 33 45 37 50 75 94 246 350 358
535 82 136 163 297 158 318 -1 4 2 14 5 22 22 55 30 286 13 358 -3 12 -8 30
-10 40 -2 9 -7 31 -11 47 -13 53 -93 208 -138 267 -97 128 -274 314 -376 396
-25 21 -52 42 -59 49 -7 7 -26 20 -42 30 -17 9 -30 21 -30 25 0 4 -6 8 -14 8
-8 0 -16 4 -18 8 -4 12 -95 72 -107 72 -6 0 -11 5 -11 10 0 6 -7 10 -15 10 -8
0 -15 5 -15 10 0 6 -5 10 -11 10 -6 0 -37 16 -70 35 -32 19 -59 31 -59 27 0
-4 -4 -2 -8 4 -6 10 -136 71 -167 78 -5 2 -17 6 -25 9 -42 18 -100 35 -100 30
0 -3 -6 -1 -13 5 -14 12 -27 15 -172 42 -98 18 -314 21 -390 5 -53 -10 -95
-26 -95 -36 0 -5 -7 -9 -15 -9 -9 0 -30 -20 -47 -45 l-32 -46 -34 41 c-39 47
-131 135 -164 158 -13 9 -31 24 -41 33 -23 21 -142 82 -171 87 -29 5 -51 10
-51 12 0 1 -18 4 -40 6 -22 2 -44 5 -50 7 -5 1 -23 1 -40 0z"/>
<path d="M4839 4148 c-6 -179 -22 -278 -73 -469 -32 -121 -137 -369 -199 -474
-7 -11 -26 -42 -42 -70 -16 -27 -33 -54 -37 -60 -5 -5 -29 -39 -54 -75 -26
-36 -53 -72 -60 -80 -22 -25 -68 -83 -99 -125 -16 -22 -34 -45 -40 -52 -12
-15 -20 -25 -65 -83 -19 -25 -37 -47 -40 -50 -3 -3 -29 -34 -58 -70 -28 -36
-61 -75 -72 -87 -11 -12 -20 -25 -20 -28 0 -3 -10 -16 -22 -29 -13 -13 -41
-45 -63 -71 -22 -27 -54 -64 -72 -84 -17 -20 -41 -47 -53 -61 -94 -110 -392
-428 -597 -638 -62 -63 -113 -115 -113 -116 0 -1 -342 -349 -603 -613 -66 -68
-117 -126 -113 -130 10 -10 601 -617 638 -655 14 -15 31 -28 36 -28 10 0 772
758 962 957 185 194 241 254 305 327 33 38 67 76 75 85 13 14 73 89 92 116 4
6 21 27 38 47 17 20 53 67 80 105 27 37 53 73 59 79 5 6 41 60 80 120 39 60
74 114 78 119 23 32 166 310 190 370 37 92 96 276 107 335 3 14 10 52 16 85 7
33 14 78 16 100 3 22 7 60 10 85 12 109 7 364 -8 393 -6 11 -5 17 2 17 6 0 9
4 6 9 -3 5 -8 26 -12 47 -11 74 -15 96 -40 221 -2 12 -9 34 -14 48 -5 14 -8
25 -5 25 2 0 -10 37 -26 83 -16 45 -29 82 -29 82 6 0 -64 156 -108 242 -39 76
-51 88 -53 51z"/>
</g>
</svg>
