<svg width="28" height="28" viewBox="0 0 28 28" fill="none" xmlns="http://www.w3.org/2000/svg">
<path d="M14.1265 0.666668C13.1145 0.666668 12.1025 0.76787 11.0905 1.02087C11.0905 1.07148 11.0905 1.12208 11.0905 1.17268V17.618C11.0905 17.9722 10.7868 18.2252 10.4832 18.2252H9.26882C9.01582 18.2252 8.81341 18.0228 8.81341 17.7698V1.72929C4.00633 3.75332 0.666672 8.50981 0.666672 13.9747C0.666672 21.3624 6.68818 27.3333 14.1771 27.3333C21.666 27.3333 27.6369 21.3624 27.6369 14.0253C27.6369 6.68817 21.5648 0.666668 14.1265 0.666668ZM13.8735 19.5408C13.8735 19.8444 13.6205 20.0974 13.3169 20.0974H12.1025C11.7989 20.0974 11.5459 19.8444 11.5459 19.5408V11.0905C11.5459 10.7868 11.7989 10.5338 12.1025 10.5338H13.3169C13.6205 10.5338 13.8735 10.7868 13.8735 11.0905V19.5408ZM16.6059 20.3504C16.6059 20.654 16.3529 20.907 16.0493 20.907H14.8349C14.5313 20.907 14.2783 20.654 14.2783 20.3504V10.2808C14.2783 9.97723 14.5313 9.72423 14.8349 9.72423H16.0493C16.3529 9.72423 16.6059 9.97723 16.6059 10.2808V20.3504ZM19.3384 18.8324C19.3384 19.136 19.0854 19.389 18.7818 19.389H17.5674C17.2638 19.389 17.0108 19.136 17.0108 18.8324V11.9001C17.0108 11.5965 17.2638 11.3435 17.5674 11.3435H18.7818C19.0854 11.3435 19.3384 11.5965 19.3384 11.9001V18.8324Z" fill="white"/>
</svg>
