<svg width="32" height="32" viewBox="0 0 32 32" fill="none" xmlns="http://www.w3.org/2000/svg">
<path fill-rule="evenodd" clip-rule="evenodd" d="M14.2703 16.8673L16.2613 21.4948L14.0416 25.0311H9.11079L14.2703 16.8673Z" fill="white"/>
<path d="M22.7054 23.8027H23.1658L13.3476 8.29058H12.8872L22.7054 23.8027Z" fill="white"/>
<path d="M21.8623 23.8027H22.3227L12.5045 8.29058H12.0441L21.8623 23.8027Z" fill="white"/>
<path d="M21.0186 23.8027H21.479L11.6608 8.29058H11.2004L21.0186 23.8027Z" fill="white"/>
<path d="M20.1748 23.8027H20.6352L10.817 8.29058H10.3566L20.1748 23.8027Z" fill="white"/>
<path d="M19.3317 23.8027H19.7921L9.97389 8.29058H9.51349L19.3317 23.8027Z" fill="white"/>
<path d="M18.4884 23.8027H18.9488L9.13062 8.29058H8.67021L18.4884 23.8027Z" fill="white"/>
<path d="M18.2612 16.0431L18.0745 15.6133L18.2612 16.0431Z" fill="white"/>
<path fill-rule="evenodd" clip-rule="evenodd" d="M17.1948 12.2263L17.1948 12.2263L19.4213 8.70356H24.3453L19.1942 16.8673L17.1948 12.2263Z" fill="white"/>
<path fill-rule="evenodd" clip-rule="evenodd" d="M25.2634 1.31835H6.73655C3.74414 1.31835 1.31832 3.74418 1.31832 6.73658V25.2634C1.31832 28.2558 3.74414 30.6816 6.73655 30.6816H25.2634C28.2558 30.6816 30.6816 28.2558 30.6816 25.2634V6.73658C30.6816 3.74418 28.2558 1.31835 25.2634 1.31835ZM6.73655 0.444445C3.2615 0.444445 0.444412 3.26153 0.444412 6.73658V25.2634C0.444412 28.7385 3.2615 31.5556 6.73655 31.5556H25.2634C28.7384 31.5556 31.5555 28.7385 31.5555 25.2634V6.73658C31.5555 3.26153 28.7384 0.444445 25.2634 0.444445H6.73655Z" fill="white"/>
</svg>
