<svg viewBox="0 0 92 75" fill="none" xmlns="http://www.w3.org/2000/svg">
<path d="M25.454 41.8067C25.5091 41.8344 25.5692 41.8508 25.6307 41.8551C25.6923 41.8594 25.7541 41.8514 25.8125 41.8316C25.871 41.8118 25.9249 41.7806 25.9712 41.7398C26.0175 41.6991 26.0552 41.6495 26.0822 41.594L26.9637 39.852C27.02 39.7392 27.0292 39.6086 26.9893 39.489C26.9494 39.3693 26.8637 39.2704 26.7509 39.2139C26.6953 39.1847 26.6343 39.1669 26.5717 39.1618C26.509 39.1567 26.446 39.1643 26.3864 39.1842C26.3267 39.2041 26.2717 39.2358 26.2247 39.2774C26.1776 39.3191 26.1395 39.3699 26.1126 39.4266L25.2412 41.1687C25.1849 41.2815 25.1756 41.4121 25.2155 41.5317C25.2554 41.6513 25.3412 41.7502 25.454 41.8067Z" fill="white" fill-opacity="0.2"/>
<path d="M28.4945 35.7292C28.4395 35.6996 28.3791 35.6813 28.3169 35.6755C28.2547 35.6697 28.1919 35.6764 28.1324 35.6953C28.0728 35.7142 28.0177 35.7449 27.9702 35.7855C27.9228 35.8261 27.884 35.8759 27.8562 35.9318L26.9848 37.6535C26.9571 37.7087 26.9406 37.7687 26.9364 37.8302C26.9321 37.8918 26.9401 37.9535 26.9599 38.0119C26.9797 38.0704 27.0109 38.1243 27.0517 38.1705C27.0925 38.2168 27.1421 38.2545 27.1975 38.2815C27.2627 38.3171 27.3361 38.3345 27.4103 38.3321C27.4974 38.3319 27.5829 38.3083 27.6578 38.2637C27.7326 38.2192 27.7941 38.1553 27.8359 38.0789L28.7073 36.3268C28.7539 36.2187 28.7578 36.097 28.7183 35.9862C28.6789 35.8754 28.5989 35.7835 28.4945 35.7292Z" fill="white" fill-opacity="0.2"/>
<path d="M34.1657 24.3652C34.2308 24.4008 34.3043 24.4182 34.3785 24.4158C34.4671 24.4169 34.5542 24.3927 34.6296 24.3461C34.705 24.2995 34.7655 24.2323 34.804 24.1525L35.6754 22.4611C35.7031 22.406 35.7196 22.3459 35.7238 22.2844C35.7281 22.2229 35.7201 22.1611 35.7003 22.1027C35.6805 22.0443 35.6493 21.9904 35.6085 21.9441C35.5677 21.8979 35.5181 21.8601 35.4627 21.8332C35.351 21.7761 35.2214 21.7654 35.1018 21.8033C34.9823 21.8413 34.8826 21.9248 34.8243 22.0357L33.9529 23.7879C33.9121 23.8935 33.9113 24.0104 33.9504 24.1166C33.9896 24.2229 34.0661 24.3112 34.1657 24.3652Z" fill="white" fill-opacity="0.2"/>
<path d="M32.4639 27.8607C32.5307 27.8918 32.603 27.909 32.6767 27.9114C32.7648 27.9102 32.851 27.885 32.9259 27.8386C33.0009 27.7922 33.0618 27.7264 33.1022 27.648L33.9736 25.906C34.0029 25.8504 34.0206 25.7895 34.0258 25.7269C34.0309 25.6642 34.0233 25.6012 34.0034 25.5416C33.9835 25.482 33.9518 25.427 33.9101 25.38C33.8684 25.333 33.8176 25.2949 33.7608 25.268C33.6479 25.2117 33.5173 25.2024 33.3977 25.2423C33.278 25.2822 33.179 25.3679 33.1225 25.4806L32.2511 27.2227C32.1975 27.3359 32.1896 27.4655 32.2293 27.5844C32.2689 27.7033 32.353 27.8023 32.4639 27.8607Z" fill="white" fill-opacity="0.2"/>
<path d="M6.2416 67.815L4.95478 69.2532L19.6063 39.9527C19.721 39.9621 19.8362 39.9621 19.9508 39.9527C20.706 39.9527 21.4302 39.6529 21.9641 39.1192C22.4981 38.5854 22.7981 37.8615 22.7981 37.1067C22.7981 36.9852 22.7981 36.8738 22.7981 36.7624L28.9991 33.6632L28.756 34.1493C28.6996 34.2622 28.6904 34.3927 28.7303 34.5124C28.7702 34.632 28.856 34.7309 28.9687 34.7874C29.039 34.8013 29.1113 34.8013 29.1815 34.7874C29.2699 34.7873 29.3565 34.7626 29.4317 34.7161C29.5069 34.6696 29.5676 34.6031 29.6071 34.5241L30.4177 32.9036L35.0888 30.5741C35.6026 31.0689 36.284 31.3521 36.9973 31.3671C37.7106 31.3822 38.4034 31.128 38.9376 30.6554C39.4718 30.1827 39.8083 29.5262 39.8799 28.8166C39.9516 28.1071 39.7531 27.3966 39.3241 26.8268L53.3981 5.77052C53.6256 5.83538 53.8607 5.86945 54.0973 5.8718C54.5197 5.86834 54.9358 5.76785 55.3132 5.57809L65.243 15.5036L64.3007 16.5164C64.2405 16.585 64.2013 16.6694 64.1877 16.7596C64.1741 16.8498 64.1868 16.942 64.2241 17.0253C64.2615 17.1085 64.322 17.1792 64.3984 17.2291C64.4749 17.2789 64.564 17.3057 64.6553 17.3064C64.7216 17.306 64.7871 17.2924 64.848 17.2663C64.9089 17.2402 64.964 17.2022 65.01 17.1545L65.9117 16.1417L68.607 18.8256C68.4171 19.2028 68.3166 19.6187 68.3131 20.041C68.3131 20.7958 68.6131 21.5196 69.1471 22.0534C69.681 22.5871 70.4052 22.8869 71.1604 22.8869C71.9155 22.8869 72.6397 22.5871 73.1737 22.0534C73.7076 21.5196 74.0076 20.7958 74.0076 20.041C74.0076 19.9295 74.0076 19.8181 74.0076 19.6966L80.8673 16.2733L81.5968 16.6683C81.6648 16.7069 81.7415 16.7278 81.8197 16.7291C81.905 16.7325 81.9894 16.7115 82.0631 16.6684C82.1367 16.6253 82.1964 16.562 82.2352 16.486C82.267 16.4326 82.2875 16.3733 82.2955 16.3116C82.3036 16.25 82.2989 16.1874 82.2818 16.1276C82.2647 16.0678 82.2356 16.0122 82.1962 15.9641C82.1568 15.916 82.108 15.8765 82.0528 15.8479L81.8906 15.7568L86.2881 13.559C86.7616 14.015 87.3783 14.2932 88.0336 14.3464C88.6889 14.3995 89.3425 14.2244 89.8833 13.8506C90.424 13.4768 90.8187 12.9275 91.0003 12.2958C91.1819 11.6642 91.1393 10.9892 90.8795 10.3855C90.6198 9.78174 90.1591 9.28646 89.5755 8.98371C88.992 8.68096 88.3215 8.58942 87.6781 8.72462C87.0347 8.85982 86.4579 9.21344 86.0457 9.72542C85.6335 10.2374 85.4113 10.8762 85.4168 11.5334C85.4062 11.6479 85.4062 11.7632 85.4168 11.8777L73.1362 18.0457C72.8682 17.785 72.551 17.58 72.2032 17.4427C71.8553 17.3053 71.4836 17.2384 71.1097 17.2456C70.688 17.2456 70.2719 17.3426 69.8938 17.5292L56.6507 4.23105C56.8373 3.85308 56.9344 3.43721 56.9344 3.01569C56.9575 2.62834 56.9012 2.24036 56.7688 1.87558C56.6364 1.5108 56.4309 1.17693 56.1647 0.89449C55.8985 0.612048 55.5773 0.386999 55.2209 0.233175C54.8645 0.0793504 54.4804 0 54.0922 0C53.704 0 53.3199 0.0793504 52.9635 0.233175C52.6071 0.386999 52.286 0.612048 52.0198 0.89449C51.7536 1.17693 51.548 1.5108 51.4156 1.87558C51.2832 2.24036 51.2269 2.62834 51.2501 3.01569C51.2492 3.62797 51.4524 4.2231 51.8276 4.70707L40.8744 21.1348L39.4255 20.436C39.3686 20.4067 39.3064 20.3892 39.2426 20.3845C39.1788 20.3798 39.1148 20.388 39.0542 20.4086C38.9937 20.4292 38.9379 20.4617 38.8902 20.5043C38.8425 20.5469 38.8039 20.5987 38.7767 20.6566C38.7495 20.7144 38.7342 20.7771 38.7317 20.841C38.7293 20.9049 38.7397 20.9686 38.7624 21.0284C38.7852 21.0881 38.8197 21.1427 38.864 21.1888C38.9082 21.2349 38.9614 21.2717 39.0202 21.2968L40.3475 21.9248L37.7131 25.8545C37.4876 25.7978 37.2565 25.7673 37.0241 25.7633C36.2689 25.7633 35.5447 26.0632 35.0108 26.5969C34.4768 27.1306 34.1768 27.8545 34.1768 28.6093C34.1675 28.7239 34.1675 28.8391 34.1768 28.9537L31.7552 30.1589L32.1503 29.379C32.2005 29.267 32.2055 29.1399 32.1642 29.0244C32.1229 28.9088 32.0385 28.8136 31.9287 28.7587C31.8189 28.7038 31.6921 28.6934 31.5748 28.7298C31.4575 28.7661 31.3588 28.8463 31.2992 28.9537L30.438 30.7058C30.4346 30.753 30.4346 30.8004 30.438 30.8476L21.9368 35.1014C21.3923 34.5795 20.6646 34.2922 19.9103 34.3013C19.1569 34.3039 18.4353 34.605 17.9036 35.1384C17.3718 35.6718 17.0732 36.3942 17.0732 37.1473C17.0703 37.8821 17.358 38.5883 17.8737 39.1121L3.19173 68.4835C3.08027 68.4835 2.95868 68.4835 2.84723 68.4835C2.2841 68.4835 1.73362 68.6504 1.26539 68.9631C0.797169 69.2758 0.432233 69.7203 0.216733 70.2404C0.00123366 70.7604 -0.0551509 71.3326 0.0547099 71.8847C0.164571 72.4368 0.435743 72.9439 0.833934 73.3419C1.23213 73.7399 1.73945 74.0109 2.29176 74.1208C2.84407 74.2306 3.41655 74.1742 3.93681 73.9588C4.45707 73.7434 4.90175 73.3786 5.21461 72.9106C5.52746 72.4426 5.69445 71.8923 5.69445 71.3295C5.70609 70.8927 5.61589 70.4593 5.43101 70.0635C5.51262 70.0398 5.5862 69.9942 5.64379 69.9318L6.94075 68.4835C6.99102 68.4393 7.03142 68.385 7.0593 68.3242C7.08718 68.2634 7.10192 68.1973 7.10255 68.1304C7.10318 68.0635 7.0897 67.9972 7.06297 67.9359C7.03625 67.8745 6.99688 67.8195 6.94745 67.7744C6.89802 67.7293 6.83962 67.6951 6.77608 67.6741C6.71253 67.653 6.64526 67.6456 6.57866 67.6523C6.51206 67.659 6.44762 67.6797 6.38954 67.7129C6.33146 67.7462 6.28105 67.7914 6.2416 67.8454V67.815ZM88.193 9.65969C88.5678 9.65969 88.9341 9.77077 89.2457 9.97888C89.5573 10.187 89.8002 10.4828 89.9436 10.8289C90.087 11.1749 90.1245 11.5557 90.0514 11.9231C89.9783 12.2905 89.7978 12.628 89.5329 12.8929C89.2679 13.1577 88.9303 13.3381 88.5627 13.4112C88.1952 13.4843 87.8142 13.4468 87.468 13.3034C87.1217 13.1601 86.8258 12.9173 86.6176 12.6059C86.4094 12.2944 86.2983 11.9282 86.2983 11.5536C86.2983 11.3049 86.3473 11.0586 86.4425 10.8289C86.5377 10.5991 86.6773 10.3903 86.8532 10.2144C87.0292 10.0386 87.2381 9.89904 87.468 9.80386C87.6978 9.70868 87.9442 9.65969 88.193 9.65969ZM72.9943 20.0815C72.9943 20.4561 72.8832 20.8222 72.675 21.1337C72.4668 21.4451 72.1709 21.6879 71.8247 21.8312C71.4784 21.9746 71.0975 22.0121 70.7299 21.939C70.3624 21.8659 70.0247 21.6856 69.7598 21.4207C69.4948 21.1558 69.3143 20.8183 69.2412 20.451C69.1681 20.0836 69.2056 19.7028 69.349 19.3567C69.4924 19.0106 69.7353 18.7148 70.0469 18.5067C70.3585 18.2986 70.7248 18.1875 71.0996 18.1875C71.3531 18.1808 71.6054 18.2247 71.8418 18.3167C72.0781 18.4088 72.2936 18.547 72.4758 18.7235C72.6579 18.8999 72.803 19.1109 72.9025 19.3441C73.002 19.5772 73.0539 19.828 73.0551 20.0815H72.9943ZM54.0973 1.13187C54.4716 1.13387 54.8369 1.24664 55.1472 1.45597C55.4574 1.66529 55.6987 1.96178 55.8406 2.30802C55.9824 2.65427 56.0185 3.03475 55.9443 3.40147C55.87 3.7682 55.6888 4.10472 55.4234 4.36858C55.158 4.63244 54.8204 4.81182 54.4531 4.88408C54.0858 4.95634 53.7054 4.91825 53.3597 4.7746C53.0141 4.63096 52.7188 4.38821 52.511 4.07698C52.3033 3.76574 52.1924 3.39997 52.1924 3.02581C52.1924 2.77624 52.2417 2.52913 52.3376 2.29869C52.4334 2.06824 52.5739 1.859 52.7509 1.683C52.9279 1.507 53.138 1.3677 53.3691 1.27312C53.6001 1.17854 53.8476 1.13053 54.0973 1.13187ZM37.0241 26.7255C37.3988 26.7255 37.7651 26.8366 38.0767 27.0447C38.3883 27.2528 38.6312 27.5486 38.7746 27.8946C38.918 28.2407 38.9555 28.6215 38.8824 28.9889C38.8093 29.3563 38.6289 29.6938 38.3639 29.9586C38.0989 30.2235 37.7613 30.4039 37.3937 30.477C37.0262 30.5501 36.6452 30.5126 36.299 30.3692C35.9527 30.2259 35.6568 29.9831 35.4486 29.6716C35.2404 29.3602 35.1293 28.994 35.1293 28.6194C35.1293 28.1171 35.3289 27.6354 35.6843 27.2802C36.0396 26.925 36.5215 26.7255 37.0241 26.7255ZM19.9508 35.2533C20.3256 35.2533 20.6919 35.3644 21.0035 35.5725C21.3151 35.7806 21.558 36.0764 21.7014 36.4225C21.8448 36.7685 21.8823 37.1494 21.8092 37.5167C21.7361 37.8841 21.5556 38.2216 21.2906 38.4865C21.0257 38.7513 20.688 38.9317 20.3205 39.0048C19.9529 39.0779 19.572 39.0404 19.2257 38.897C18.8795 38.7537 18.5836 38.5109 18.3754 38.1995C18.1672 37.888 18.0561 37.5218 18.0561 37.1473C18.0587 36.6458 18.2592 36.1656 18.614 35.811C18.9687 35.4564 19.4491 35.256 19.9508 35.2533ZM2.88776 73.1626C2.51301 73.1626 2.14667 73.0516 1.83508 72.8435C1.52348 72.6353 1.28063 72.3395 1.13721 71.9935C0.993804 71.6474 0.956281 71.2666 1.02939 70.8992C1.1025 70.5318 1.28296 70.1943 1.54795 69.9295C1.81294 69.6646 2.15055 69.4842 2.5181 69.4111C2.88565 69.3381 3.26663 69.3756 3.61285 69.5189C3.95908 69.6623 4.255 69.905 4.4632 70.2165C4.6714 70.5279 4.78253 70.8941 4.78253 71.2687C4.78253 71.5174 4.73352 71.7637 4.6383 71.9935C4.54308 72.2233 4.40351 72.432 4.22756 72.6079C4.05162 72.7838 3.84274 72.9233 3.61285 73.0185C3.38297 73.1137 3.13658 73.1626 2.88776 73.1626Z" fill="white" fill-opacity="0.2"/>
<path d="M11.4403 62.0116L10.1737 63.4599C10.129 63.5033 10.0934 63.5553 10.0691 63.6127C10.0448 63.6701 10.0323 63.7318 10.0323 63.7941C10.0323 63.8565 10.0448 63.9182 10.0691 63.9756C10.0934 64.033 10.129 64.0849 10.1737 64.1283C10.2627 64.2081 10.3784 64.2515 10.4979 64.2499C10.5638 64.25 10.6288 64.2355 10.6884 64.2075C10.7479 64.1795 10.8005 64.1386 10.8424 64.0878L12.2002 62.6395C12.2881 62.5505 12.3373 62.4304 12.3373 62.3053C12.3373 62.1802 12.2881 62.0602 12.2002 61.9711C12.154 61.9126 12.0944 61.8661 12.0264 61.8354C11.9585 61.8048 11.8842 61.7908 11.8097 61.7948C11.7353 61.7988 11.6629 61.8205 11.5986 61.8582C11.5343 61.896 11.48 61.9486 11.4403 62.0116Z" fill="white" fill-opacity="0.2"/>
<path d="M24.9966 42.7185C24.9414 42.6908 24.8813 42.6744 24.8198 42.6701C24.7582 42.6659 24.6964 42.6739 24.638 42.6936C24.5796 42.7134 24.5256 42.7446 24.4793 42.7854C24.4331 42.8262 24.3953 42.8757 24.3683 42.9312L23.497 44.6732C23.4677 44.7288 23.4499 44.7898 23.4448 44.8524C23.4397 44.915 23.4473 44.978 23.4672 45.0376C23.4871 45.0972 23.5188 45.1522 23.5605 45.1992C23.6022 45.2463 23.6529 45.2844 23.7097 45.3113C23.7726 45.3433 23.8419 45.3606 23.9124 45.3619C24.0008 45.3618 24.0874 45.3372 24.1626 45.2907C24.2377 45.2441 24.2985 45.1776 24.3379 45.0986L25.2093 43.3566C25.2386 43.301 25.2564 43.24 25.2615 43.1774C25.2666 43.1148 25.259 43.0518 25.2391 42.9922C25.2192 42.9326 25.1875 42.8776 25.1458 42.8306C25.1041 42.7835 25.0534 42.7454 24.9966 42.7185Z" fill="white" fill-opacity="0.2"/>
<path d="M21.5117 49.675C21.4561 49.6457 21.3952 49.628 21.3325 49.6229C21.2698 49.6178 21.2068 49.6254 21.1472 49.6452C21.0875 49.6651 21.0326 49.6968 20.9855 49.7385C20.9384 49.7802 20.9003 49.8309 20.8734 49.8877L20.002 51.6297C19.9743 51.6848 19.9579 51.7449 19.9536 51.8064C19.9493 51.8679 19.9573 51.9297 19.9771 51.9881C19.9969 52.0465 20.0281 52.1004 20.0689 52.1467C20.1097 52.193 20.1593 52.2307 20.2148 52.2576C20.2845 52.2761 20.3578 52.2761 20.4276 52.2576C20.5149 52.2585 20.6008 52.2354 20.6759 52.1907C20.7509 52.146 20.8122 52.0816 20.8531 52.0044L21.7245 50.2523C21.7653 50.1466 21.7662 50.0298 21.727 49.9235C21.6879 49.8173 21.6113 49.7289 21.5117 49.675Z" fill="white" fill-opacity="0.2"/>
<path d="M19.8293 54.0508C19.8596 54.0223 19.8838 53.9878 19.9002 53.9495L19.9813 53.7976C20.0315 53.6856 20.0364 53.5585 19.9951 53.4429C19.9538 53.3274 19.8695 53.2322 19.7596 53.1773C19.6498 53.1224 19.523 53.112 19.4057 53.1484C19.2884 53.1847 19.1897 53.2649 19.1302 53.3722L17.9447 54.7395C17.8996 54.7838 17.8639 54.8366 17.8394 54.8949C17.815 54.9531 17.8025 55.0157 17.8025 55.0788C17.8025 55.142 17.815 55.2045 17.8394 55.2628C17.8639 55.321 17.8996 55.3738 17.9447 55.4181C18.0361 55.5014 18.1553 55.5475 18.279 55.5475C18.4027 55.5475 18.522 55.5014 18.6134 55.4181L19.8293 54.0508Z" fill="white" fill-opacity="0.2"/>
<path d="M22.6258 46.3943L21.7443 48.1363C21.688 48.2491 21.6788 48.3797 21.7187 48.4993C21.7586 48.6189 21.8443 48.7178 21.9571 48.7743C22.0222 48.8099 22.0957 48.8274 22.1699 48.825C22.2585 48.8261 22.3456 48.8019 22.421 48.7553C22.4964 48.7086 22.5569 48.6415 22.5954 48.5617L23.4668 46.8196C23.5231 46.7068 23.5324 46.5762 23.4925 46.4566C23.4526 46.337 23.3668 46.2381 23.254 46.1816C23.1989 46.1539 23.1388 46.1375 23.0773 46.1332C23.0157 46.1289 22.9539 46.1369 22.8955 46.1567C22.837 46.1765 22.7831 46.2077 22.7368 46.2485C22.6905 46.2892 22.6528 46.3388 22.6258 46.3943Z" fill="white" fill-opacity="0.2"/>
<path d="M14.0446 59.1046L12.7375 60.5529C12.6497 60.642 12.6004 60.762 12.6004 60.8871C12.6004 61.0122 12.6497 61.1323 12.7375 61.2214C12.8267 61.3092 12.9468 61.3584 13.0719 61.3584C13.1971 61.3584 13.3172 61.3092 13.4063 61.2214L14.7032 59.7629C14.7445 59.717 14.7763 59.6635 14.7968 59.6053C14.8174 59.5471 14.8263 59.4855 14.823 59.4239C14.8197 59.3623 14.8043 59.3019 14.7777 59.2463C14.751 59.1906 14.7137 59.1408 14.6678 59.0995C14.6219 59.0583 14.5683 59.0265 14.5101 59.006C14.4519 58.9855 14.3902 58.9766 14.3286 58.9799C14.267 58.9832 14.2066 58.9986 14.1509 59.0252C14.0952 59.0518 14.0454 59.0891 14.0041 59.135L14.0446 59.1046Z" fill="white" fill-opacity="0.2"/>
<path d="M16.6374 56.199L15.3404 57.6474C15.2802 57.7159 15.241 57.8003 15.2275 57.8906C15.2139 57.9808 15.2265 58.073 15.2639 58.1562C15.3013 58.2395 15.3618 58.3102 15.4382 58.36C15.5147 58.4099 15.6038 58.4367 15.6951 58.4373C15.7615 58.4382 15.8274 58.4251 15.8885 58.3989C15.9496 58.3727 16.0045 58.3341 16.0497 58.2854L17.3467 56.827C17.3914 56.7836 17.427 56.7316 17.4513 56.6742C17.4755 56.6168 17.4881 56.5551 17.4881 56.4928C17.4881 56.4304 17.4755 56.3687 17.4513 56.3113C17.427 56.2539 17.3914 56.202 17.3467 56.1585C17.2992 56.1112 17.2423 56.0743 17.1796 56.0505C17.1169 56.0266 17.0499 56.0163 16.983 56.0201C16.916 56.0239 16.8506 56.0418 16.7911 56.0727C16.7315 56.1035 16.6791 56.1466 16.6374 56.199Z" fill="white" fill-opacity="0.2"/>
<path d="M8.83679 64.9093L7.53983 66.3677C7.47963 66.4363 7.44041 66.5207 7.42684 66.6109C7.41327 66.7011 7.42592 66.7934 7.46329 66.8766C7.50065 66.9598 7.56116 67.0306 7.6376 67.0804C7.71404 67.1302 7.80321 67.1571 7.89447 67.1577C7.95963 67.1631 8.02517 67.1541 8.08645 67.1313C8.14774 67.1086 8.20327 67.0726 8.24911 67.026L9.54607 65.5777C9.5908 65.5343 9.62636 65.4824 9.65065 65.4249C9.67493 65.3675 9.68744 65.3058 9.68744 65.2435C9.68744 65.1812 9.67493 65.1195 9.65065 65.0621C9.62636 65.0047 9.5908 64.9527 9.54607 64.9093C9.5014 64.8595 9.44673 64.8196 9.38563 64.7924C9.32452 64.7651 9.25835 64.751 9.19143 64.751C9.12451 64.751 9.05833 64.7651 8.99723 64.7924C8.93612 64.8196 8.88146 64.8595 8.83679 64.9093Z" fill="white" fill-opacity="0.2"/>
<path d="M37.6103 19.5854L36.749 19.1802C36.6359 19.1278 36.5068 19.1218 36.3894 19.1635C36.2719 19.2051 36.1755 19.2911 36.1208 19.4031L35.6952 20.2437C35.6389 20.3565 35.6297 20.4871 35.6696 20.6067C35.7095 20.7263 35.7952 20.8253 35.908 20.8818C35.9777 20.9002 36.0511 20.9002 36.1208 20.8818C36.2094 20.8829 36.2965 20.8587 36.3719 20.812C36.4473 20.7654 36.5078 20.6982 36.5463 20.6184L36.7693 20.193L37.205 20.3956C37.318 20.448 37.4471 20.454 37.5646 20.4124C37.682 20.3707 37.7784 20.2847 37.8332 20.1728C37.8715 20.0643 37.8702 19.9458 37.8294 19.8382C37.7886 19.7307 37.7109 19.6411 37.6103 19.5854Z" fill="white" fill-opacity="0.2"/>
<path d="M42.4149 22.3909C42.3625 22.504 42.3565 22.633 42.3981 22.7504C42.4398 22.8678 42.5259 22.9642 42.6378 23.0189L44.4515 23.8798C44.5182 23.895 44.5875 23.895 44.6542 23.8798C44.7605 23.8773 44.8629 23.8395 44.9451 23.7721C45.0273 23.7048 45.0847 23.6119 45.108 23.5082C45.1313 23.4046 45.1192 23.2961 45.0737 23.2001C45.0282 23.104 44.9519 23.026 44.8568 22.9784L43.0431 22.1175C42.984 22.0931 42.9206 22.0808 42.8567 22.0814C42.7927 22.0819 42.7296 22.0954 42.6709 22.1209C42.6123 22.1464 42.5594 22.1835 42.5154 22.2299C42.4715 22.2763 42.4373 22.3311 42.4149 22.3909Z" fill="white" fill-opacity="0.2"/>
<path d="M46.6504 23.8792C46.5359 23.8264 46.4053 23.8201 46.2862 23.8616C46.1671 23.9032 46.0688 23.9894 46.0121 24.1021C45.9851 24.1584 45.9697 24.2196 45.9668 24.2821C45.9639 24.3445 45.9737 24.4068 45.9954 24.4654C46.0172 24.524 46.0505 24.5776 46.0934 24.6231C46.1363 24.6685 46.1879 24.7049 46.2451 24.73L48.0487 25.5909C48.1123 25.6209 48.1811 25.6381 48.2514 25.6415C48.3425 25.6424 48.4321 25.6171 48.5093 25.5687C48.5866 25.5202 48.6482 25.4506 48.687 25.3681C48.7141 25.3117 48.7295 25.2505 48.7323 25.1881C48.7352 25.1257 48.7255 25.0633 48.7037 25.0047C48.682 24.9461 48.6487 24.8925 48.6058 24.8471C48.5629 24.8016 48.5112 24.7652 48.454 24.7401L46.6504 23.8792Z" fill="white" fill-opacity="0.2"/>
<path d="M51.1737 26.1107C51.0592 26.0578 50.9286 26.0515 50.8094 26.0931C50.6903 26.1346 50.5921 26.2208 50.5353 26.3335C50.5083 26.3898 50.4929 26.4511 50.4901 26.5135C50.4872 26.5759 50.4969 26.6383 50.5187 26.6968C50.5404 26.7554 50.5737 26.809 50.6166 26.8545C50.6595 26.9 50.7111 26.9363 50.7684 26.9614L52.572 27.8223C52.6356 27.8523 52.7044 27.8695 52.7746 27.873C52.8658 27.8739 52.9554 27.8486 53.0326 27.8001C53.1098 27.7516 53.1715 27.682 53.2103 27.5995C53.2373 27.5431 53.2527 27.4819 53.2556 27.4195C53.2585 27.3571 53.2487 27.2947 53.227 27.2361C53.2052 27.1776 53.1719 27.1239 53.129 27.0785C53.0861 27.033 53.0345 26.9967 52.9773 26.9716L51.1737 26.1107Z" fill="white" fill-opacity="0.2"/>
<path d="M56.9035 26.2394L58.2511 24.7303C58.2924 24.6844 58.3242 24.6309 58.3447 24.5727C58.3653 24.5145 58.3742 24.4529 58.3709 24.3913C58.3676 24.3297 58.3522 24.2693 58.3255 24.2137C58.2989 24.158 58.2616 24.1081 58.2157 24.0669C58.1698 24.0257 58.1162 23.9939 58.058 23.9734C57.9998 23.9528 57.9381 23.9439 57.8765 23.9472C57.8149 23.9505 57.7545 23.9659 57.6988 23.9925C57.6431 24.0192 57.5933 24.0565 57.552 24.1024L56.1943 25.6114C56.1064 25.7005 56.0571 25.8206 56.0571 25.9457C56.0571 26.0708 56.1064 26.1908 56.1943 26.2799C56.2807 26.3573 56.3923 26.4005 56.5084 26.4014C56.5825 26.4096 56.6576 26.3991 56.7266 26.3708C56.7957 26.3425 56.8565 26.2973 56.9035 26.2394Z" fill="white" fill-opacity="0.2"/>
<path d="M68.3534 12.0294L67.0057 13.5384C66.9414 13.6048 66.8983 13.6887 66.8819 13.7796C66.8654 13.8704 66.8763 13.9641 66.9132 14.0488C66.9501 14.1335 67.0114 14.2052 67.0892 14.255C67.167 14.3048 67.2579 14.3304 67.3502 14.3284C67.4167 14.3292 67.4826 14.3161 67.5436 14.29C67.6047 14.2638 67.6596 14.2252 67.7049 14.1765L69.0626 12.6674C69.1505 12.5784 69.1998 12.4583 69.1998 12.3332C69.1998 12.2081 69.1505 12.088 69.0626 11.999C69.0167 11.9495 68.9606 11.9106 68.8981 11.8849C68.8357 11.8593 68.7684 11.8475 68.701 11.8504C68.6335 11.8533 68.5675 11.8708 68.5075 11.9017C68.4475 11.9326 68.3949 11.9761 68.3534 12.0294Z" fill="white" fill-opacity="0.2"/>
<path d="M59.6082 23.2222L60.9558 21.7131C61.0048 21.668 61.0438 21.6132 61.0703 21.552C61.0968 21.4909 61.1102 21.4249 61.1096 21.3583C61.1089 21.2917 61.0943 21.226 61.0667 21.1654C61.039 21.1048 60.999 21.0506 60.9491 21.0065C60.8992 20.9623 60.8406 20.9291 60.7771 20.909C60.7136 20.8889 60.6465 20.8823 60.5803 20.8897C60.5141 20.8972 60.4501 20.9184 60.3926 20.9521C60.3351 20.9857 60.2854 21.0311 60.2465 21.0852L58.8989 22.5943C58.811 22.6833 58.7617 22.8034 58.7617 22.9285C58.7617 23.0536 58.811 23.1737 58.8989 23.2627C58.9889 23.3408 59.1039 23.384 59.2231 23.3843C59.2955 23.3891 59.368 23.3769 59.4348 23.3488C59.5017 23.3206 59.561 23.2773 59.6082 23.2222Z" fill="white" fill-opacity="0.2"/>
<path d="M61.9496 20.3648C62.0171 20.3664 62.0841 20.3526 62.1456 20.3246C62.207 20.2965 62.2613 20.2548 62.3042 20.2027L63.6518 18.7038C63.7021 18.6596 63.7425 18.6053 63.7704 18.5445C63.7983 18.4837 63.813 18.4177 63.8137 18.3507C63.8143 18.2838 63.8008 18.2176 63.7741 18.1562C63.7473 18.0949 63.708 18.0398 63.6586 17.9947C63.6091 17.9496 63.5507 17.9154 63.4872 17.8944C63.4236 17.8733 63.3564 17.8659 63.2898 17.8726C63.2232 17.8793 63.1587 17.9 63.1006 17.9333C63.0426 17.9665 62.9922 18.0117 62.9527 18.0657L61.595 19.5748C61.5071 19.6639 61.4578 19.7839 61.4578 19.909C61.4578 20.0341 61.5071 20.1542 61.595 20.2433C61.6428 20.2864 61.6988 20.3195 61.7598 20.3404C61.8208 20.3613 61.8853 20.3696 61.9496 20.3648Z" fill="white" fill-opacity="0.2"/>
<path d="M70.0567 11.3203C70.1231 11.3211 70.189 11.308 70.2501 11.2819C70.3111 11.2557 70.3661 11.2171 70.4113 11.1684L70.7862 10.743L71.2827 11.0165C71.3372 11.0471 71.3973 11.0667 71.4594 11.0741C71.5215 11.0815 71.5845 11.0766 71.6447 11.0596C71.7049 11.0427 71.7612 11.0141 71.8104 10.9754C71.8595 10.9367 71.9006 10.8887 71.9312 10.8342C71.9632 10.78 71.9839 10.7199 71.992 10.6575C72.0002 10.5951 71.9956 10.5317 71.9785 10.4711C71.9615 10.4106 71.9323 10.3541 71.8928 10.3051C71.8534 10.256 71.8044 10.2155 71.7488 10.186L70.9686 9.72009C70.8764 9.66714 70.7688 9.64731 70.6637 9.66389C70.5587 9.68047 70.4624 9.73247 70.391 9.81125L69.7527 10.5202C69.6648 10.6093 69.6156 10.7293 69.6156 10.8544C69.6156 10.9795 69.6648 11.0996 69.7527 11.1887C69.835 11.2675 69.9428 11.3142 70.0567 11.3203Z" fill="white" fill-opacity="0.2"/>
<path d="M73.4595 11.1287C73.4046 11.0911 73.3425 11.0654 73.2771 11.0533C73.2117 11.0411 73.1445 11.0428 73.0798 11.0582C73.0151 11.0736 72.9543 11.1024 72.9014 11.1427C72.8485 11.183 72.8046 11.234 72.7726 11.2922C72.7406 11.3505 72.7212 11.4149 72.7156 11.4811C72.71 11.5474 72.7183 11.6141 72.7401 11.6769C72.7618 11.7398 72.7965 11.7974 72.8419 11.846C72.8873 11.8946 72.9423 11.9332 73.0035 11.9592L74.7159 12.9113C74.7834 12.9512 74.8604 12.9722 74.9388 12.972C75.0442 12.9721 75.1466 12.9372 75.23 12.8728C75.3135 12.8085 75.3732 12.7183 75.3998 12.6164C75.4265 12.5145 75.4185 12.4066 75.3773 12.3097C75.3361 12.2128 75.2638 12.1323 75.1719 12.0808L73.4595 11.1287Z" fill="white" fill-opacity="0.2"/>
<path d="M76.8861 13.0325C76.8319 13.0005 76.7718 12.9798 76.7094 12.9716C76.647 12.9635 76.5835 12.9681 76.5229 12.9851C76.4623 13.0022 76.4058 13.0313 76.3568 13.0708C76.3078 13.1102 76.2673 13.1592 76.2377 13.2148C76.1785 13.3255 76.1644 13.4547 76.1984 13.5755C76.2324 13.6964 76.3118 13.7993 76.4201 13.863L78.1426 14.815C78.2535 14.8703 78.3813 14.8811 78.4999 14.8453C78.6186 14.8096 78.7191 14.7299 78.7809 14.6226C78.8127 14.5692 78.8333 14.5098 78.8413 14.4482C78.8493 14.3866 78.8447 14.3239 78.8276 14.2642C78.8105 14.2044 78.7814 14.1488 78.742 14.1007C78.7026 14.0526 78.6538 14.013 78.5985 13.9845L76.8861 13.0325Z" fill="white" fill-opacity="0.2"/>
<path d="M84.9918 18.6132C85.0593 18.6531 85.1363 18.6741 85.2147 18.6739C85.3201 18.674 85.4225 18.6391 85.5059 18.5747C85.5894 18.5104 85.6491 18.4202 85.6757 18.3183C85.7024 18.2164 85.6944 18.1085 85.6532 18.0116C85.612 17.9147 85.5397 17.8341 85.4478 17.7826L83.7354 16.8306C83.6235 16.7723 83.4932 16.7598 83.3722 16.7957C83.2512 16.8316 83.1489 16.9131 83.0869 17.023C83.0569 17.0774 83.0381 17.1372 83.0315 17.199C83.025 17.2607 83.0309 17.3231 83.0488 17.3826C83.0667 17.442 83.0964 17.4973 83.136 17.5451C83.1756 17.593 83.2244 17.6324 83.2794 17.6611L84.9918 18.6132Z" fill="white" fill-opacity="0.2"/>
<path d="M88.1924 19.8385C88.2228 19.7848 88.2422 19.7255 88.2494 19.6642C88.2567 19.6029 88.2517 19.5407 88.2347 19.4814C88.2178 19.422 88.1892 19.3666 88.1506 19.3184C88.112 19.2702 88.0642 19.2301 88.01 19.2005L87.1791 18.7346C87.069 18.6728 86.9387 18.6573 86.8171 18.6915C86.6955 18.7257 86.5925 18.8068 86.5307 18.9169C86.4688 19.027 86.4533 19.1572 86.4875 19.2787C86.5218 19.4003 86.6029 19.5033 86.713 19.5651L87.5439 20.0209C87.6136 20.0642 87.6949 20.0854 87.7769 20.0816C87.8615 20.0816 87.9446 20.0591 88.0176 20.0164C88.0907 19.9737 88.151 19.9123 88.1924 19.8385Z" fill="white" fill-opacity="0.2"/>
<path d="M61.6343 73.9955C61.6343 74.5503 57.7351 75 52.9252 75C48.1153 75 44.216 74.5503 44.216 73.9955C44.216 73.4408 48.1153 72.9911 52.9252 72.9911C57.7351 72.9911 61.6343 73.4408 61.6343 73.9955Z" fill="white" fill-opacity="0.2"/>
<path d="M33.1168 44.83L42.9508 34.5323H64.0235L73.8574 44.83L53.0188 66.1275L33.1168 44.83Z" fill="white" fill-opacity="0.2"/>
<path d="M74.1981 44.7653L64.0326 33.9967C63.9315 33.89 63.7915 33.8301 63.6449 33.8301H59.258H47.2653H42.8784C42.7319 33.8301 42.5919 33.89 42.4907 33.9967L32.3252 44.7653C32.1295 44.9727 32.1323 45.2971 32.3309 45.5011L52.88 66.6761C52.9025 66.6999 52.9339 66.7121 52.961 66.7318C52.984 66.7477 53.0027 66.765 53.0285 66.7776C53.0982 66.8123 53.175 66.8357 53.2556 66.8362C53.257 66.8362 53.2593 66.8376 53.2607 66.8376C53.2607 66.8376 53.2607 66.8376 53.2612 66.8376H53.2617C53.345 66.8376 53.4242 66.8137 53.4977 66.7767C53.5178 66.7664 53.5333 66.751 53.5529 66.7383C53.5829 66.7177 53.6176 66.7023 53.6433 66.6761L74.1925 45.5011C74.391 45.2975 74.3938 44.9732 74.1981 44.7653ZM63.4154 34.8945L72.805 44.8412L65.4314 46.7542L60.0813 34.8945H63.4154ZM52.7288 64.455L42.4425 48.048L52.7288 49.3464V64.455ZM53.7946 49.3464L64.0837 48.0437L53.7946 64.4508V49.3464ZM58.9138 34.8945L64.3468 46.941L53.7946 48.2731V34.8945H58.9138ZM47.6095 34.8945H52.7292V48.274L42.1756 46.9452L47.6095 34.8945ZM43.1079 34.8945H46.4416L41.0934 46.7509L33.7184 44.8412L43.1079 34.8945ZM34.4161 46.1209L41.0531 47.8359L50.127 62.3108L34.4161 46.1209ZM56.3903 62.3173L65.4679 47.8415L72.1063 46.1223L56.3903 62.3173Z" fill="white"/>
</svg>
