<svg width="42" height="42" viewBox="0 0 42 42" fill="none" xmlns="http://www.w3.org/2000/svg">
<path fill-rule="evenodd" clip-rule="evenodd" d="M11.3085 0.328717C14.1208 0.928568 16.7696 3.26205 17.8778 6.11616C18.1548 6.82953 18.2168 7.39446 18.271 9.70305C18.3062 11.2101 18.3695 12.6035 18.4113 12.7994C18.4872 13.1542 18.4962 13.1553 21.0279 13.1125L23.5684 13.0695L23.6669 10.3294C23.721 8.8223 23.8158 7.41309 23.8773 7.1978C24.3121 5.67743 24.5534 5.11484 25.1763 4.16927C26.3871 2.33104 28.6287 0.761342 30.6612 0.32856C31.8571 0.0738077 34.05 0.126575 35.2461 0.438792C37.4947 1.0258 39.7529 2.94122 40.8659 5.20581C42.1927 7.90553 42.1543 10.6912 40.7534 13.3568C39.728 15.3084 37.6757 17.1317 35.7805 17.7753C34.805 18.1064 32.8448 18.3122 30.6535 18.3136L28.8137 18.3148V20.8984V23.4819L30.9667 23.4874C34.4826 23.4963 36.4131 24.0177 38.3412 25.4795C39.8636 26.6337 41.309 29.004 41.6741 30.9454C41.9019 32.156 41.7429 34.4516 41.353 35.5818C40.2508 38.7759 37.1667 41.2985 33.9709 41.6198C30.8328 41.9351 28.5241 41.1643 26.4273 39.1009C24.3118 37.019 23.6467 35.101 23.6467 31.0825V28.8056H21.0014H18.3562L18.2804 31.8197C18.2223 34.1303 18.1426 34.9982 17.9388 35.5384C16.7079 38.8009 13.6307 41.3146 10.4971 41.6176C8.84032 41.7778 7.13753 41.601 6.09566 41.1605C3.8652 40.2178 2.21017 38.7452 1.20291 36.807C-0.644872 33.2521 0.0138506 29.1364 2.89661 26.2231C4.88124 24.2177 7.09165 23.4819 11.1331 23.4819H13.1403L13.1872 21.1547C13.2131 19.8747 13.2115 18.7121 13.1836 18.5712C13.1403 18.3515 12.872 18.3147 11.3047 18.3136C8.90483 18.3119 6.93789 18.077 6.01659 17.6821C3.52026 16.6121 1.47081 14.4903 0.678683 12.156C-0.0630279 9.9708 0.0771097 7.18825 1.023 5.31886C2.22066 2.95156 4.50357 1.04725 6.92552 0.395419C7.93733 0.12313 10.1839 0.0888394 11.3085 0.328717ZM7.83227 5.5174C7.08774 5.85483 6.26069 6.6039 5.83997 7.32197C5.49017 7.91884 5.41705 8.23263 5.41517 9.14688C5.41251 10.4554 5.75087 11.2212 6.71837 12.0953C7.65267 12.9394 8.62158 13.1666 11.0597 13.1135L13.0776 13.0695L13.1208 10.6886C13.16 8.52777 13.1329 8.24155 12.8281 7.593C12.4167 6.71789 11.3503 5.75055 10.5243 5.503C9.76021 5.27408 8.35273 5.2816 7.83227 5.5174ZM31.3973 5.51051C30.6571 5.77356 29.7872 6.5361 29.3214 7.33011C28.9039 8.0416 28.8937 8.11848 28.893 10.5642L28.892 13.0695L31.1624 13.0684C33.7533 13.0673 34.329 12.9279 35.2785 12.0719C36.5365 10.938 36.9592 9.21499 36.3361 7.76132C35.9285 6.81042 34.85 5.75321 34.0409 5.51145C33.2689 5.28066 32.045 5.28034 31.3973 5.51051ZM18.392 18.5175C18.3493 18.6289 18.3338 19.7738 18.3578 21.0619L18.4013 23.4036L21.024 23.4465L23.6467 23.4894V20.9021V18.3148H21.0583C19.0851 18.3148 18.4512 18.3631 18.392 18.5175ZM7.60633 29.1261C6.79838 29.5291 6.32865 29.9802 5.8254 30.8359C5.48438 31.4156 5.41486 31.7239 5.41908 32.6366C5.42488 33.8638 5.754 34.6863 6.52609 35.4038C8.15278 36.9149 10.3812 36.8847 12.0398 35.3291C13.0004 34.4281 13.1486 33.8773 13.1525 31.1934L13.1559 28.8056L10.6898 28.8118C8.55895 28.8172 8.13979 28.8599 7.60633 29.1261ZM28.844 31.2717C28.902 33.3889 28.9581 33.8264 29.2398 34.3641C30.8367 37.4121 35.297 37.0832 36.4034 33.8361C36.8551 32.5102 36.5739 31.2094 35.5861 30.0552C34.648 28.9593 34.1401 28.8129 31.2612 28.809L28.7763 28.8056L28.844 31.2717Z" fill="white"/>
</svg>
