<svg width="32" height="32" viewBox="0 0 32 32" fill="none" xmlns="http://www.w3.org/2000/svg">
<path fill-rule="evenodd" clip-rule="evenodd" d="M9.53897 2.21913C11.4138 2.61904 13.1797 4.17469 13.9186 6.07743C14.1032 6.55301 14.1446 6.92963 14.1807 8.46869C14.2042 9.4734 14.2463 10.4023 14.2742 10.5329C14.3248 10.7694 14.3308 10.7702 16.0186 10.7417L17.7122 10.713L17.7779 8.88623C17.814 7.88152 17.8772 6.94205 17.9182 6.79852C18.2081 5.78494 18.3689 5.40988 18.7842 4.7795C19.5914 3.55402 21.0858 2.50755 22.4408 2.21903C23.2381 2.04919 24.7 2.08437 25.4974 2.29252C26.9965 2.68386 28.5019 3.9608 29.2439 5.47053C30.1285 7.27034 30.1029 9.12747 29.169 10.9045C28.4853 12.2056 27.1172 13.4212 25.8537 13.8502C25.2034 14.0709 23.8966 14.2081 22.4357 14.2091L21.2092 14.2099V15.9322V17.6546L22.6445 17.6583C24.9884 17.6642 26.2754 18.0118 27.5608 18.9864C28.5757 19.7558 29.5393 21.336 29.7827 22.6302C29.9346 23.4373 29.8286 24.9677 29.5687 25.7212C28.8339 27.8506 26.7778 29.5323 24.6473 29.7465C22.5552 29.9567 21.016 29.4429 19.6182 28.0673C18.2079 26.6794 17.7644 25.4006 17.7644 22.7217V21.2037H16.001H14.2375L14.1869 23.2131C14.1482 24.7535 14.0951 25.3322 13.9592 25.6923C13.1386 27.8673 11.0871 29.5431 8.99805 29.745C7.89354 29.8518 6.75835 29.734 6.06377 29.4403C4.5768 28.8118 3.47345 27.8301 2.80194 26.538C1.57008 24.168 2.00923 21.4243 3.93107 19.4821C5.25416 18.1451 6.72777 17.6546 9.42206 17.6546H10.7602L10.7915 16.1031C10.8087 15.2498 10.8077 14.4747 10.7891 14.3808C10.7602 14.2343 10.5814 14.2098 9.53647 14.2091C7.93655 14.2079 6.62526 14.0513 6.01106 13.7881C4.34684 13.0747 2.98054 11.6602 2.45246 10.104C1.95798 8.64719 2.05141 6.79216 2.682 5.5459C3.48044 3.96769 5.00238 2.69816 6.61702 2.2636C7.29155 2.08208 8.78928 2.05922 9.53897 2.21913ZM7.22151 5.67826C6.72516 5.90321 6.1738 6.40259 5.89331 6.8813C5.66011 7.27922 5.61137 7.48841 5.61011 8.09791C5.60834 8.97026 5.83392 9.48081 6.47891 10.0635C7.10178 10.6262 7.74772 10.7777 9.3731 10.7423L10.7184 10.713L10.7472 9.12569C10.7733 7.68517 10.7553 7.49436 10.552 7.06199C10.2778 6.47858 9.56684 5.83369 9.01621 5.66865C8.50681 5.51604 7.56849 5.52105 7.22151 5.67826ZM22.9315 5.67367C22.4381 5.84903 21.8581 6.35739 21.5476 6.88673C21.2693 7.36105 21.2625 7.41231 21.262 9.04281L21.2614 10.713L22.7749 10.7122C24.5022 10.7115 24.886 10.6186 25.519 10.0479C26.3577 9.29198 26.6395 8.14332 26.224 7.17421C25.9523 6.54027 25.2333 5.83546 24.694 5.67429C24.1792 5.52043 23.3634 5.52022 22.9315 5.67367ZM14.2614 14.345C14.2329 14.4193 14.2225 15.1826 14.2385 16.0412L14.2675 17.6024L16.016 17.631L17.7644 17.6596V15.9348V14.2099H16.0388C14.7234 14.2099 14.3008 14.242 14.2614 14.345ZM7.07088 21.4174C6.53226 21.6861 6.2191 21.9868 5.8836 22.5573C5.65625 22.9437 5.6099 23.1492 5.61272 23.7577C5.61659 24.5759 5.836 25.1242 6.35073 25.6025C7.43519 26.6099 8.9208 26.5898 10.0266 25.5527C10.667 24.9521 10.7657 24.5849 10.7683 22.7956L10.7706 21.2037L9.12655 21.2079C7.70596 21.2114 7.42653 21.2399 7.07088 21.4174ZM21.2293 22.8478C21.268 24.2593 21.3054 24.5509 21.4932 24.9094C22.5578 26.9414 25.5313 26.7221 26.2689 24.5574C26.5701 23.6735 26.3826 22.8062 25.724 22.0368C25.0987 21.3062 24.76 21.2086 22.8408 21.206L21.1842 21.2037L21.2293 22.8478Z" fill="white"/>
</svg>
