<svg width="32" height="32" viewBox="0 0 32 32" fill="none" xmlns="http://www.w3.org/2000/svg">
<g clip-path="url(#clip0_421_776)">
<path d="M16.1414 10.2726C13.4545 10.2726 11.3333 12.0403 10.7676 14.5857H8.4343V16.4241H10.6262C10.909 19.3231 13.2424 21.4443 16.1414 21.4443C18.3333 21.4443 20.1717 20.5958 20.9494 19.111L18.9696 17.8383C18.4747 18.6868 17.3434 19.1817 16.1414 19.1817C14.4444 19.1817 13.2424 18.1211 12.9595 16.4241H22.8585L23.4949 14.5857H21.2323C20.8787 12.111 18.7575 10.2726 16.1414 10.2726ZM13.101 14.5857C13.5252 13.1716 14.5151 12.3231 16 12.3231C17.4848 12.3231 18.5454 13.2423 18.6868 14.5857H13.101Z" fill="white"/>
<path d="M10.4258 26.9673L9.2725 29.2364C1.96073 25.5202 -0.952879 16.5837 2.76337 9.27191L5.03254 10.4252C1.95703 16.4764 4.3747 23.8917 10.4258 26.9673ZM22.7279 2.76278L21.5746 5.03195C27.6257 8.10747 30.0434 15.5229 26.9679 21.574L29.237 22.7273C32.9533 15.4155 30.0397 6.47903 22.7279 2.76278Z" fill="white"/>
</g>
<defs>
<clipPath id="clip0_421_776">
<rect width="31.1111" height="31.1111" fill="white" transform="translate(0.444443 0.444443)"/>
</clipPath>
</defs>
</svg>
