<svg width="179" height="119" viewBox="0 0 179 119" fill="none" xmlns="http://www.w3.org/2000/svg">
<path d="M133.569 65.3769C133.569 91.0247 112.619 111.816 86.7749 111.816C60.9312 111.816 39.9807 91.0247 39.9807 65.3769C39.9807 39.729 60.9312 18.9373 86.7749 18.9373C112.619 18.9373 133.569 39.729 133.569 65.3769Z" fill="#C4C4C4" fill-opacity="0.15"/>
<path fill-rule="evenodd" clip-rule="evenodd" d="M133.525 67.412L131.526 67.3252C131.554 66.6794 131.569 66.0298 131.569 65.3769C131.569 64.7239 131.554 64.0744 131.526 63.4285L133.525 63.3417C133.554 64.0165 133.569 64.695 133.569 65.3769C133.569 66.0588 133.554 66.7373 133.525 67.412ZM133.171 59.2894L131.187 59.551C131.016 58.2559 130.789 56.9786 130.509 55.7214L132.461 55.2857C132.755 56.6002 132.992 57.9356 133.171 59.2894ZM131.4 51.3609L129.494 51.9679C129.099 50.7269 128.65 49.5093 128.15 48.3178L129.995 47.5445C130.517 48.7901 130.987 50.0632 131.4 51.3609ZM128.258 43.8669L126.488 44.8C125.882 43.65 125.226 42.5296 124.523 41.4414L126.204 40.3568C126.938 41.4939 127.624 42.665 128.258 43.8669ZM123.851 37.0398L122.271 38.2669C121.474 37.2415 120.633 36.2515 119.75 35.2997L121.218 33.9401C122.139 34.9343 123.018 35.9685 123.851 37.0398ZM118.325 31.0803L116.982 32.5618C116.021 31.6906 115.021 30.8604 113.986 30.0739L115.197 28.4816C116.278 29.3031 117.322 30.1703 118.325 31.0803ZM111.855 26.1636L110.787 27.8547C109.691 27.1633 108.564 26.518 107.407 25.9212L108.324 24.1438C109.533 24.7672 110.711 25.4414 111.855 26.1636ZM104.631 22.4382L103.872 24.2886C102.676 23.7982 101.454 23.3577 100.208 22.9698L100.803 21.0603C102.105 21.4656 103.382 21.9258 104.631 22.4382ZM96.872 20.0212L96.4453 21.9752C95.1857 21.7002 93.906 21.4779 92.6087 21.3106L92.8647 19.327C94.2195 19.5017 95.5561 19.734 96.872 20.0212ZM88.8106 18.9805L88.7257 20.9787C88.079 20.9512 87.4286 20.9373 86.7749 20.9373C86.1211 20.9373 85.4708 20.9512 84.8241 20.9787L84.7391 18.9805C85.4141 18.9518 86.0928 18.9373 86.7749 18.9373C87.457 18.9373 88.1357 18.9518 88.8106 18.9805ZM80.6851 19.327L80.9411 21.3106C79.6438 21.4779 78.3641 21.7002 77.1045 21.9752L76.6778 20.0212C77.9937 19.734 79.3303 19.5017 80.6851 19.327ZM72.7464 21.0603L73.3414 22.9698C72.0959 23.3577 70.8738 23.7982 69.6777 24.2886L68.9186 22.4382C70.1682 21.9258 71.4451 21.4656 72.7464 21.0603ZM65.2256 24.1438L66.1428 25.9212C64.9859 26.518 63.8584 27.1634 62.7632 27.8547L61.6952 26.1636C62.8392 25.4414 64.017 24.7672 65.2256 24.1438ZM58.3532 28.4816L59.5637 30.0739C58.5287 30.8604 57.5293 31.6906 56.5682 32.5618L55.2244 31.0803C56.2282 30.1703 57.2721 29.3031 58.3532 28.4816ZM52.3322 33.9401L53.7994 35.2997C52.9169 36.2515 52.0758 37.2415 51.2789 38.2669L49.6992 37.0398C50.5317 35.9685 51.4104 34.9343 52.3322 33.9401ZM47.346 40.3568L49.0268 41.4414C48.3243 42.5296 47.6683 43.65 47.0616 44.8L45.2921 43.8669C45.9263 42.665 46.6119 41.494 47.346 40.3568ZM43.5549 47.5445L45.3998 48.3178C44.9001 49.5093 44.4512 50.7269 44.0558 51.9679L42.1497 51.3609C42.5631 50.0632 43.0325 48.7901 43.5549 47.5445ZM41.0886 55.2857L43.041 55.7214C42.7604 56.9786 42.5333 58.2559 42.3625 59.551L40.3791 59.2894C40.5577 57.9356 40.7951 56.6002 41.0886 55.2857ZM40.0249 63.3417C39.9955 64.0165 39.9807 64.695 39.9807 65.3769C39.9807 66.0588 39.9955 66.7373 40.0249 67.412L42.0235 67.3252C41.9954 66.6794 41.9812 66.0298 41.9812 65.3769C41.9812 64.7239 41.9954 64.0744 42.0235 63.4285L40.0249 63.3417ZM40.3791 71.4643L42.3625 71.2028C42.5333 72.4978 42.7604 73.7752 43.041 75.0323L41.0886 75.468C40.7951 74.1535 40.5577 72.8181 40.3791 71.4643ZM42.1497 79.3928L44.0558 78.7858C44.4512 80.0269 44.9001 81.2445 45.3998 82.4359L43.5549 83.2092C43.0325 81.9636 42.5631 80.6905 42.1497 79.3928ZM45.2921 86.8868L47.0616 85.9538C47.6683 87.1037 48.3243 88.2241 49.0268 89.3123L47.346 90.3969C46.6119 89.2598 45.9263 88.0888 45.2921 86.8868ZM49.6992 93.7139L51.2789 92.4868C52.0758 93.5122 52.9169 94.5022 53.7994 95.454L52.3322 96.8136C51.4104 95.8194 50.5317 94.7852 49.6992 93.7139ZM55.2244 99.6735L56.5682 98.1919C57.5293 99.0631 58.5287 99.8934 59.5637 100.68L58.3532 102.272C57.2721 101.451 56.2282 100.583 55.2244 99.6735ZM61.6952 104.59L62.7632 102.899C63.8584 103.59 64.9859 104.236 66.1428 104.833L65.2256 106.61C64.017 105.987 62.8392 105.312 61.6952 104.59ZM68.9186 108.316L69.6777 106.465C70.8738 106.956 72.0959 107.396 73.3414 107.784L72.7464 109.693C71.4451 109.288 70.1682 108.828 68.9186 108.316ZM76.6778 110.733L77.1045 108.779C78.3641 109.053 79.6438 109.276 80.9411 109.443L80.6851 111.427C79.3303 111.252 77.9937 111.02 76.6778 110.733ZM84.7391 111.773L84.8241 109.775C85.4708 109.803 86.1211 109.816 86.7749 109.816C87.4286 109.816 88.079 109.803 88.7257 109.775L88.8106 111.773C88.1357 111.802 87.457 111.816 86.7749 111.816C86.0928 111.816 85.4141 111.802 84.7391 111.773ZM92.8647 111.427L92.6087 109.443C93.906 109.276 95.1857 109.053 96.4453 108.779L96.872 110.733C95.5561 111.02 94.2195 111.252 92.8647 111.427ZM100.803 109.693L100.208 107.784C101.454 107.396 102.676 106.956 103.872 106.465L104.631 108.316C103.382 108.828 102.105 109.288 100.803 109.693ZM108.324 106.61L107.407 104.833C108.564 104.236 109.691 103.59 110.787 102.899L111.855 104.59C110.711 105.312 109.533 105.987 108.324 106.61ZM115.197 102.272L113.986 100.68C115.021 99.8934 116.021 99.0631 116.982 98.1919L118.325 99.6735C117.322 100.583 116.278 101.451 115.197 102.272ZM121.218 96.8136L119.75 95.454C120.633 94.5022 121.474 93.5122 122.271 92.4868L123.851 93.7139C123.018 94.7852 122.139 95.8194 121.218 96.8136ZM126.204 90.3969L124.523 89.3123C125.226 88.2241 125.882 87.1037 126.488 85.9538L128.258 86.8868C127.624 88.0888 126.938 89.2598 126.204 90.3969ZM129.995 83.2092L128.15 82.4359C128.65 81.2444 129.099 80.0269 129.494 78.7858L131.4 79.3928C130.987 80.6905 130.517 81.9636 129.995 83.2092ZM132.461 75.468L130.509 75.0323C130.789 73.7752 131.016 72.4978 131.187 71.2028L133.171 71.4643C132.992 72.8181 132.755 74.1535 132.461 75.468Z" fill="#636363" fill-opacity="0.8"/>
<path opacity="0.3" d="M89.9538 47.3407C89.9538 71.9925 69.817 91.9768 44.9769 91.9768C20.1368 91.9768 0 71.9925 0 47.3407C0 22.6889 20.1368 2.70465 44.9769 2.70465C69.817 2.70465 89.9538 22.6889 89.9538 47.3407Z" fill="#C4C4C4" fill-opacity="0.15"/>
<path opacity="0.3" fill-rule="evenodd" clip-rule="evenodd" d="M44.9769 90.9768C69.2715 90.9768 88.9536 71.4333 88.9536 47.3407C88.9536 23.2481 69.2715 3.70465 44.9769 3.70465C20.6823 3.70465 1.00025 23.2481 1.00025 47.3407C1.00025 71.4333 20.6823 90.9768 44.9769 90.9768ZM44.9769 91.9768C69.817 91.9768 89.9538 71.9925 89.9538 47.3407C89.9538 22.6889 69.817 2.70465 44.9769 2.70465C20.1368 2.70465 0 22.6889 0 47.3407C0 71.9925 20.1368 91.9768 44.9769 91.9768Z" fill="#636363"/>
<path opacity="0.4" d="M179 65.3767C179 88.0365 160.49 106.406 137.658 106.406C114.825 106.406 96.3152 88.0365 96.3152 65.3767C96.3152 42.717 114.825 24.3476 137.658 24.3476C160.49 24.3476 179 42.717 179 65.3767Z" fill="#C4C4C4" fill-opacity="0.15"/>
<path opacity="0.4" fill-rule="evenodd" clip-rule="evenodd" d="M178.974 66.8492L176.975 66.7782C176.991 66.3132 176.999 65.8459 176.999 65.3767C176.999 64.9075 176.991 64.4403 176.975 63.9752L178.974 63.9042C178.991 64.3929 179 64.8838 179 65.3767C179 65.8696 178.991 66.3605 178.974 66.8492ZM178.765 60.9731L176.776 61.1869C176.675 60.2538 176.542 59.3307 176.376 58.4188L178.345 58.062C178.519 59.0212 178.659 59.992 178.765 60.9731ZM177.716 55.1917L175.779 55.6901C175.545 54.7835 175.28 53.8896 174.984 53.0096L176.88 52.3719C177.192 53.2976 177.471 54.238 177.716 55.1917ZM175.842 49.6219L173.997 50.3952C173.636 49.5334 173.244 48.6872 172.823 47.8578L174.608 46.9532C175.05 47.8254 175.462 48.7154 175.842 49.6219ZM173.184 44.3809L171.47 45.4114C170.989 44.6113 170.479 43.8296 169.943 43.0677L171.58 41.9171C172.143 42.718 172.678 43.5397 173.184 44.3809ZM169.803 39.5743L168.253 40.8385C167.663 40.1156 167.048 39.4139 166.408 38.7349L167.864 37.3637C168.536 38.0772 169.183 38.8145 169.803 39.5743ZM165.774 35.2963L164.418 36.7673C163.732 36.1356 163.024 35.5279 162.294 34.9455L163.542 33.3823C164.308 33.9941 165.053 34.6326 165.774 35.2963ZM161.179 31.631L160.046 33.2788C159.278 32.7509 158.491 32.2494 157.685 31.7757L158.699 30.0517C159.546 30.5495 160.373 31.0764 161.179 31.631ZM156.113 28.6525L155.224 30.4441C154.39 30.0308 153.54 29.646 152.674 29.291L153.433 27.4406C154.343 27.8137 155.237 28.2181 156.113 28.6525ZM150.675 26.4229L150.05 28.3227C149.167 28.0323 148.271 27.7721 147.362 27.5434L147.85 25.6039C148.805 25.8443 149.748 26.1177 150.675 26.4229ZM144.976 24.9884L144.627 26.9577C143.713 26.7957 142.788 26.665 141.853 26.5668L142.062 24.5777C143.044 24.6809 144.016 24.8182 144.976 24.9884ZM139.131 24.3732L139.061 26.3719C138.595 26.3558 138.127 26.3476 137.658 26.3476C137.188 26.3476 136.72 26.3558 136.254 26.3719L136.185 24.3732C136.673 24.3562 137.165 24.3476 137.658 24.3476C138.151 24.3476 138.642 24.3562 139.131 24.3732ZM133.253 24.5777L133.462 26.5668C132.527 26.665 131.602 26.7957 130.689 26.9577L130.339 24.9884C131.299 24.8182 132.271 24.6809 133.253 24.5777ZM127.465 25.6039L127.954 27.5434C127.044 27.7721 126.148 28.0323 125.265 28.3227L124.64 26.4229C125.568 26.1177 126.51 25.8443 127.465 25.6039ZM121.882 27.4406L122.641 29.291C121.775 29.646 120.925 30.0308 120.091 30.4442L119.202 28.6525C120.078 28.2181 120.972 27.8137 121.882 27.4406ZM116.616 30.0517L117.63 31.7757C116.824 32.2494 116.037 32.7509 115.27 33.2788L114.136 31.631C114.942 31.0764 115.769 30.5495 116.616 30.0517ZM111.774 33.3823L113.021 34.9455C112.291 35.5279 111.583 36.1356 110.897 36.7673L109.542 35.2963C110.262 34.6326 111.007 33.9942 111.774 33.3823ZM107.451 37.3637L108.907 38.7349C108.267 39.4139 107.652 40.1156 107.062 40.8385L105.512 39.5743C106.132 38.8145 106.779 38.0772 107.451 37.3637ZM103.736 41.9171L105.372 43.0677C104.836 43.8296 104.327 44.6113 103.845 45.4114L102.131 44.3809C102.637 43.5397 103.172 42.718 103.736 41.9171ZM100.708 46.9532L102.492 47.8578C102.071 48.6872 101.679 49.5334 101.318 50.3953L99.4729 49.6219C99.8531 48.7154 100.265 47.8254 100.708 46.9532ZM98.4351 52.3719L100.331 53.0096C100.035 53.8896 99.7697 54.7835 99.5364 55.6901L97.599 55.1917C97.8444 54.238 98.1236 53.2976 98.4351 52.3719ZM96.9703 58.062L98.9387 58.4188C98.7733 59.3307 98.6399 60.2538 98.5395 61.1869L96.5505 60.9732C96.656 59.992 96.7963 59.0212 96.9703 58.062ZM96.3413 63.9042C96.3239 64.3929 96.3152 64.8838 96.3152 65.3767C96.3152 65.8696 96.3239 66.3605 96.3413 66.8492L98.3405 66.7782C98.324 66.3132 98.3157 65.8459 98.3157 65.3767C98.3157 64.9075 98.324 64.4403 98.3405 63.9752L96.3413 63.9042ZM96.5505 69.7803L98.5395 69.5665C98.6399 70.4996 98.7733 71.4227 98.9387 72.3347L96.9703 72.6914C96.7963 71.7322 96.656 70.7614 96.5505 69.7803ZM97.599 75.5617L99.5364 75.0633C99.7697 75.9699 100.035 76.8638 100.331 77.7438L98.4351 78.3815C98.1236 77.4558 97.8444 76.5154 97.599 75.5617ZM99.4729 81.1315L101.318 80.3582C101.679 81.22 102.071 82.0662 102.492 82.8957L100.708 83.8002C100.265 82.928 99.8531 82.038 99.4729 81.1315ZM102.131 86.3725L103.845 85.342C104.327 86.1421 104.836 86.9238 105.372 87.6858L103.736 88.8363C103.172 88.0355 102.637 87.2137 102.131 86.3725ZM105.512 91.1791L107.062 89.9149C107.652 90.6378 108.268 91.3395 108.907 92.0185L107.451 93.3897C106.779 92.6762 106.132 91.9389 105.512 91.1791ZM109.542 95.4571L110.897 93.9861C111.583 94.6178 112.291 95.2255 113.021 95.8079L111.774 97.3712C111.007 96.7593 110.262 96.1208 109.542 95.4571ZM114.136 99.1224L115.27 97.4746C116.037 98.0025 116.824 98.504 117.63 98.9777L116.616 100.702C115.769 100.204 114.942 99.677 114.136 99.1224ZM119.202 102.101L120.091 100.309C120.925 100.723 121.775 101.107 122.641 101.462L121.882 103.313C120.972 102.94 120.078 102.535 119.202 102.101ZM124.64 104.331L125.265 102.431C126.148 102.721 127.044 102.981 127.954 103.21L127.465 105.15C126.51 104.909 125.568 104.636 124.64 104.331ZM130.339 105.765L130.689 103.796C131.602 103.958 132.527 104.088 133.462 104.187L133.253 106.176C132.271 106.072 131.299 105.935 130.339 105.765ZM136.185 106.38L136.254 104.381C136.72 104.398 137.188 104.406 137.658 104.406C138.127 104.406 138.595 104.398 139.061 104.381L139.131 106.38C138.642 106.397 138.151 106.406 137.658 106.406C137.165 106.406 136.674 106.397 136.185 106.38ZM142.062 106.176L141.853 104.187C142.788 104.088 143.713 103.958 144.627 103.796L144.976 105.765C144.016 105.935 143.044 106.072 142.062 106.176ZM147.85 105.15L147.362 103.21C148.271 102.981 149.167 102.721 150.05 102.431L150.675 104.331C149.748 104.636 148.805 104.909 147.85 105.15ZM153.434 103.313C154.343 102.94 155.237 102.535 156.113 102.101L155.224 100.309C154.391 100.723 153.54 101.107 152.674 101.462L153.434 103.313ZM158.699 100.702L157.685 98.9777C158.491 98.504 159.278 98.0025 160.046 97.4746L161.179 99.1224C160.373 99.677 159.546 100.204 158.699 100.702ZM163.542 97.3711L162.294 95.8079C163.024 95.2255 163.732 94.6178 164.418 93.9861L165.774 95.4571C165.053 96.1208 164.308 96.7593 163.542 97.3711ZM167.864 93.3897L166.408 92.0185C167.048 91.3395 167.663 90.6378 168.253 89.9149L169.803 91.1791C169.183 91.9389 168.536 92.6762 167.864 93.3897ZM171.58 88.8363L169.943 87.6858C170.479 86.9238 170.989 86.1421 171.47 85.342L173.184 86.3725C172.678 87.2137 172.143 88.0355 171.58 88.8363ZM174.608 83.8002L172.823 82.8956C173.244 82.0662 173.636 81.22 173.997 80.3582L175.842 81.1315C175.462 82.038 175.05 82.928 174.608 83.8002ZM176.88 78.3815L174.984 77.7438C175.28 76.8638 175.545 75.9699 175.779 75.0633L177.716 75.5617C177.471 76.5154 177.192 77.4558 176.88 78.3815ZM178.345 72.6914L176.376 72.3346C176.542 71.4227 176.675 70.4996 176.776 69.5665L178.765 69.7802C178.659 70.7614 178.519 71.7322 178.345 72.6914Z" fill="#636363"/>
<g opacity="0.9" clip-path="url(#clip0_211_2418)">
<path d="M50.5125 36.7288C60.7323 36.7288 69.0171 28.5068 69.0171 18.3644C69.0171 8.22202 60.7323 0 50.5125 0C40.2926 0 32.0078 8.22202 32.0078 18.3644C32.0078 28.5068 40.2926 36.7288 50.5125 36.7288Z" fill="#9F9F9F"/>
<path d="M58.6181 15.499H53.3998V20.6777H58.6181V15.499Z" fill="white"/>
<path d="M48.1806 22.6244C48.1806 23.6895 47.2924 24.571 46.2191 24.571C45.1459 24.571 44.2577 23.6895 44.2577 22.6244C44.2577 21.5592 45.1459 20.6777 46.2191 20.6777H48.1806V15.499H46.2191C42.2592 15.499 39.0394 18.6944 39.0394 22.6244C39.0394 26.5543 42.2592 29.7498 46.2191 29.7498C50.1791 29.7498 53.3989 26.5543 53.3989 22.6244V20.6777H48.1806V22.6244Z" fill="white"/>
<path d="M55.3611 12.8913H61.2456V7.71259H55.3611C51.4012 7.71259 48.1813 10.908 48.1813 14.838V15.4991H53.3997V14.838C53.3997 13.7728 54.2879 12.8913 55.3611 12.8913Z" fill="white"/>
<path d="M53.3997 15.499H48.1813V20.6777H53.3997V15.499Z" fill="#9F9F9F"/>
</g>
<g style="mix-blend-mode:luminosity" opacity="0.8">
<path d="M128.466 86.3701C121.609 86.3975 116.056 91.9093 116.029 98.7167C116.029 100.08 116.251 101.434 116.685 102.727C117.009 103.607 117.97 104.081 118.873 103.809C119.745 103.477 120.208 102.531 119.93 101.645C119.561 100.637 119.397 99.5682 119.446 98.4979C119.595 93.5812 123.731 89.7152 128.684 89.8637C133.636 90.0121 137.531 94.1176 137.381 99.0344C137.241 103.637 133.589 107.376 128.958 107.656C128.958 107.656 127.212 107.761 126.344 107.867C126.024 107.912 125.706 107.975 125.393 108.054C125.348 108.1 125.276 108.1 125.23 108.055L125.229 108.054C125.197 108.014 125.197 107.956 125.229 107.916L125.499 106.452L127.139 99.132C127.335 98.2179 126.749 97.3182 125.828 97.1229C124.907 96.9276 124.001 97.5096 123.804 98.4237C123.804 98.4237 119.905 116.342 119.905 116.505C119.682 117.376 120.212 118.261 121.089 118.483C121.098 118.485 121.109 118.488 121.118 118.489H121.209C122.085 118.714 122.979 118.191 123.205 117.321C123.209 117.307 123.213 117.292 123.215 117.277C123.213 117.249 123.213 117.222 123.215 117.196C123.264 116.985 123.756 114.601 123.756 114.601C124.128 112.801 125.589 111.423 127.418 111.144C127.794 111.087 129.376 110.981 129.376 110.981C136.207 110.305 141.193 104.26 140.511 97.4784C139.889 91.2934 134.728 86.5316 128.466 86.3701Z" fill="white"/>
<path d="M129.257 114.907C128.138 114.677 127.043 115.386 126.81 116.49C126.808 116.5 126.806 116.511 126.804 116.521C126.562 117.618 127.266 118.703 128.378 118.942C128.38 118.942 128.381 118.942 128.382 118.943H128.44C129.529 119.203 130.625 118.541 130.886 117.467C130.889 117.459 130.89 117.45 130.893 117.443V117.33C131.085 116.221 130.368 115.157 129.257 114.907Z" fill="white"/>
</g>
<g style="mix-blend-mode:luminosity" opacity="0.95" clip-path="url(#clip1_211_2418)">
<path d="M87.5218 92.3184C102.713 92.3184 115.029 80.3187 115.029 65.5163C115.029 50.7139 102.713 38.7142 87.5218 38.7142C72.3301 38.7142 60.0149 50.7139 60.0149 65.5163C60.0149 80.3187 72.3301 92.3184 87.5218 92.3184Z" fill="#9FA6D7"/>
<path d="M87.5222 81.0683C96.3371 81.0683 103.483 74.1055 103.483 65.5165C103.483 56.9274 96.3371 49.9646 87.5222 49.9646C78.7073 49.9646 71.5614 56.9274 71.5614 65.5165C71.5614 74.1055 78.7073 81.0683 87.5222 81.0683Z" fill="#7077B1"/>
<path d="M87.579 42.1343C84.6098 42.1343 82.2022 52.6278 82.2022 65.5724C82.2022 78.517 84.6098 89.0105 87.579 89.0105C90.5482 89.0105 92.9558 78.517 92.9558 65.5724C92.9558 52.6278 90.5482 42.1343 87.579 42.1343ZM87.9502 87.6878C87.6107 88.1291 87.2711 87.798 87.2711 87.798C85.9037 86.2542 85.22 83.3861 85.22 83.3861C82.8282 75.8861 83.3975 59.7827 83.3975 59.7827C84.5216 46.9983 86.5663 43.9783 87.2621 43.3078C87.3332 43.2394 87.4267 43.1975 87.5263 43.1897C87.6259 43.1818 87.7251 43.2085 87.8065 43.2649C88.8162 43.962 89.6629 46.8772 89.6629 46.8772C92.1634 55.9215 91.937 64.4143 91.937 64.4143C92.1634 71.8042 90.684 80.0764 90.684 80.0764C89.5452 86.3631 87.9502 87.6878 87.9502 87.6878Z" fill="white"/>
<path d="M108.443 53.9065C106.965 51.3961 96.4263 54.5836 84.8974 61.0251C73.3685 67.4666 65.2361 74.724 66.7134 77.2333C68.1906 79.7426 78.7304 76.5562 90.2593 70.1147C101.788 63.6732 109.921 56.4158 108.443 53.9065ZM68.0773 76.889C67.5113 76.8195 67.6391 76.3662 67.6391 76.3662C68.3334 74.4427 70.5428 72.4374 70.5428 72.4374C76.0316 66.6834 90.6512 59.1511 90.6512 59.1511C102.59 53.7388 106.298 53.9671 107.239 54.2195C107.336 54.2458 107.42 54.3045 107.476 54.3853C107.532 54.466 107.558 54.5636 107.547 54.6608C107.434 55.8615 105.255 58.0271 105.255 58.0271C98.4526 64.6438 90.779 68.6796 90.779 68.6796C84.3132 72.5498 76.2129 75.4142 76.2129 75.4142C70.0494 77.5783 68.0775 76.889 68.0775 76.889H68.0773Z" fill="white"/>
<path d="M108.391 77.3182C109.881 74.8145 101.769 67.5239 90.2806 61.0339C78.7922 54.5439 68.2549 51.317 66.7664 53.825C65.278 56.333 73.3886 63.6193 84.8836 70.1093C96.3786 76.5993 106.903 79.8265 108.391 77.3182ZM67.7536 54.7924C67.5335 54.2841 67.9981 54.1616 67.9981 54.1616C70.0547 53.7832 72.9436 54.6456 72.9436 54.6456C80.8029 56.3894 94.8171 64.9429 94.8171 64.9429C105.607 72.2998 107.262 75.5403 107.51 76.4601C107.535 76.5545 107.525 76.6545 107.482 76.7425C107.439 76.8304 107.366 76.9008 107.274 76.9411C106.149 77.443 103.136 76.6951 103.136 76.6951C93.8479 74.2686 86.42 69.8226 86.42 69.8226C79.7459 66.3152 73.1465 60.9183 73.1465 60.9183C68.1319 56.8043 67.7551 54.798 67.7551 54.798L67.7536 54.7924Z" fill="white"/>
<path d="M87.5212 68.2729C89.0841 68.2729 90.3511 67.0384 90.3511 65.5155C90.3511 63.9926 89.0841 62.7581 87.5212 62.7581C85.9583 62.7581 84.6913 63.9926 84.6913 65.5155C84.6913 67.0384 85.9583 68.2729 87.5212 68.2729Z" fill="#EDEFFF"/>
<path d="M99.1243 56.5823C100.031 56.5823 100.765 55.8416 100.765 54.9279C100.765 54.0141 100.031 53.2734 99.1243 53.2734C98.218 53.2734 97.4833 54.0141 97.4833 54.9279C97.4833 55.8416 98.218 56.5823 99.1243 56.5823Z" fill="#EDEFFF"/>
<path d="M72.1826 62.2077C73.0889 62.2077 73.8236 61.4669 73.8236 60.5532C73.8236 59.6395 73.0889 58.8988 72.1826 58.8988C71.2763 58.8988 70.5417 59.6395 70.5417 60.5532C70.5417 61.4669 71.2763 62.2077 72.1826 62.2077Z" fill="#EDEFFF"/>
<path d="M84.1833 82.5021C85.0896 82.5021 85.8243 81.7614 85.8243 80.8477C85.8243 79.934 85.0896 79.1932 84.1833 79.1932C83.277 79.1932 82.5423 79.934 82.5423 80.8477C82.5423 81.7614 83.277 82.5021 84.1833 82.5021Z" fill="#EDEFFF"/>
</g>
<g style="mix-blend-mode:luminosity" clip-path="url(#clip2_211_2418)">
<path d="M30.0435 93.3917C30.2306 93.2006 30.4879 93.0891 30.7608 93.0891H55.5077C55.9599 93.0891 56.186 93.6464 55.8664 93.9729L50.9778 98.9649C50.7907 99.156 50.5334 99.2674 50.2605 99.2674H25.5135C25.0613 99.2674 24.8352 98.7101 25.1549 98.3837L30.0435 93.3917Z" fill="url(#paint0_linear_211_2418)"/>
<path d="M30.0414 74.7529C30.2363 74.5618 30.4936 74.4503 30.7587 74.4503H55.5056C55.9579 74.4503 56.184 75.0076 55.8643 75.3341L50.9757 80.3261C50.7886 80.5172 50.5313 80.6286 50.2584 80.6286H25.5114C25.0592 80.6286 24.8331 80.0713 25.1528 79.7449L30.0414 74.7529Z" fill="url(#paint1_linear_211_2418)"/>
<path d="M50.9778 84.0127C50.7907 83.8216 50.5334 83.7101 50.2605 83.7101H25.5135C25.0613 83.7101 24.8352 84.2675 25.1549 84.5939L30.0435 89.5859C30.2306 89.777 30.4879 89.8885 30.7608 89.8885H55.5077C55.9599 89.8885 56.186 89.3311 55.8664 89.0047L50.9778 84.0127Z" fill="url(#paint2_linear_211_2418)"/>
</g>
<g opacity="0.75" clip-path="url(#clip3_211_2418)">
<path fill-rule="evenodd" clip-rule="evenodd" d="M141.684 18.4125C139.182 15.239 135.521 13.2173 131.472 13.2173C123.632 13.2173 117.882 20.4599 117.882 28.2911C117.882 33.7423 121.544 37.837 125.592 37.837C125.979 37.837 126.34 37.8114 126.727 37.7347C123.993 35.7641 122.266 32.1811 122.266 28.2911C122.266 22.0978 126.495 17.2608 131.472 17.2608C136.913 17.2608 140.678 22.6096 140.678 28.2911C140.652 32.4883 139.157 36.6598 136.5 39.7309C134.18 42.4181 131.188 44.1072 127.887 44.6446C127.887 44.6446 128.171 44.6702 128.532 44.6702C137.635 44.6702 145.036 37.3252 145.036 28.2911C145.036 24.5802 143.798 21.1509 141.684 18.4125ZM139.182 28.2911C139.182 22.84 135.521 18.7452 131.472 18.7452C131.085 18.7452 130.724 18.7708 130.337 18.8476C133.071 20.8182 134.798 24.4011 134.798 28.2911C134.798 34.4844 130.569 39.3214 125.592 39.3214C120.151 39.3214 116.386 33.9726 116.386 28.2911C116.412 24.094 117.908 19.9224 120.564 16.8514C122.885 14.1642 125.876 12.4751 129.177 11.9376C129.177 11.9376 128.893 11.912 128.532 11.912C119.429 11.912 112.028 19.257 112.028 28.2911C112.028 32.002 113.266 35.4314 115.38 38.1697C117.882 41.3432 121.544 43.3394 125.592 43.3394C133.432 43.365 139.182 36.1224 139.182 28.2911Z" fill="white"/>
</g>
<defs>
<linearGradient id="paint0_linear_211_2418" x1="53.1437" y1="71.4686" x2="35.4465" y2="104.663" gradientUnits="userSpaceOnUse">
<stop stop-color="#00FFA3"/>
<stop offset="1" stop-color="#F2ABFF"/>
</linearGradient>
<linearGradient id="paint1_linear_211_2418" x1="45.6528" y1="67.4757" x2="27.9556" y2="100.671" gradientUnits="userSpaceOnUse">
<stop stop-color="#95FFD9"/>
<stop offset="1" stop-color="#DC1FFF"/>
</linearGradient>
<linearGradient id="paint2_linear_211_2418" x1="49.3754" y1="69.4596" x2="31.6782" y2="102.654" gradientUnits="userSpaceOnUse">
<stop stop-color="#BEFFE8"/>
<stop offset="1" stop-color="#DC1FFF"/>
</linearGradient>
<clipPath id="clip0_211_2418">
<rect width="37.0093" height="36.7288" fill="white" transform="translate(32.0078)"/>
</clipPath>
<clipPath id="clip1_211_2418">
<rect width="55.0138" height="53.6042" fill="white" transform="translate(60.0149 38.7142)"/>
</clipPath>
<clipPath id="clip2_211_2418">
<rect width="31.0078" height="24.8168" fill="white" transform="translate(25.0061 74.4503)"/>
</clipPath>
<clipPath id="clip3_211_2418">
<rect width="33.0083" height="32.7581" fill="white" transform="translate(112.028 11.912)"/>
</clipPath>
</defs>
</svg>
