<svg viewBox="0 0 91 91" fill="none" xmlns="http://www.w3.org/2000/svg">
<path d="M5.18955 1.87622H1.48267V9.38131H5.18955V1.87622Z" fill="#969696" fill-opacity="0.25"/>
<path d="M17.7927 0H14.0859V7.50509H17.7927V0Z" fill="#969696" fill-opacity="0.25"/>
<path d="M24.4653 0H20.7584V7.50509H24.4653V0Z" fill="#969696" fill-opacity="0.25"/>
<path d="M24.4653 22.5153H20.7584V30.0204H24.4653V22.5153Z" fill="#969696" fill-opacity="0.25"/>
<path d="M31.8795 11.2581H28.1726V18.7632H31.8795V11.2581Z" fill="#969696" fill-opacity="0.25"/>
<path d="M31.8795 23.4539H28.1726V30.959H31.8795V23.4539Z" fill="#969696" fill-opacity="0.25"/>
<path d="M24.4653 46.9066H20.7584V54.4117H24.4653V46.9066Z" fill="#969696" fill-opacity="0.25"/>
<path d="M31.8795 59.1033H28.1726V66.6084H31.8795V59.1033Z" fill="#969696" fill-opacity="0.25"/>
<path d="M17.7927 59.1033H14.0858V66.6084H17.7927V59.1033Z" fill="#969696" fill-opacity="0.25"/>
<path d="M5.18955 14.0719H1.48267V21.577H5.18955V14.0719Z" fill="#969696" fill-opacity="0.25"/>
<path d="M5.18965 27.2062H0V28.1443H5.18965V27.2062Z" fill="#969696" fill-opacity="0.25"/>
<path d="M25.2064 38.4633H20.0167V39.4014H25.2064V38.4633Z" fill="#969696" fill-opacity="0.25"/>
<path d="M5.18965 87.2466H0V88.1847H5.18965V87.2466Z" fill="#969696" fill-opacity="0.25"/>
<path d="M1.48267 35.6495V37.5256H2.9657V41.2782H1.48267V43.1542H5.18954V35.6495H1.48267Z" fill="#969696" fill-opacity="0.25"/>
<path d="M14.0858 22.5153V24.3913H15.5684V28.1439H14.0858V30.0199H17.7927V22.5153H14.0858Z" fill="#969696" fill-opacity="0.25"/>
<path d="M28.1726 34.7109V36.5876H29.6552V40.3402H28.1726V42.2162H31.8795V34.7109H28.1726Z" fill="#969696" fill-opacity="0.25"/>
<path d="M28.1726 71.2991V73.1751H29.6552V76.9277H28.1726V78.8038H31.8795V71.2991H28.1726Z" fill="#969696" fill-opacity="0.25"/>
<path d="M28.1726 83.4948V85.3714H29.6552V89.124H28.1726V91H31.8795V83.4948H28.1726Z" fill="#969696" fill-opacity="0.25"/>
<path d="M28.1726 45.969V47.845H29.6552V51.5976H28.1726V53.4743H31.8795V45.969H28.1726Z" fill="#969696" fill-opacity="0.25"/>
<path d="M20.7584 11.2581V13.1347H22.241V16.8867H20.7584V18.7633H24.4653V11.2581H20.7584Z" fill="#969696" fill-opacity="0.25"/>
<path d="M24.4653 71.2991H20.7584V78.8042H24.4653V71.2991Z" fill="#969696" fill-opacity="0.25"/>
<path d="M20.7584 82.5562V84.4322H22.241V88.1848H20.7584V90.0614H24.4653V82.5562H20.7584Z" fill="#969696" fill-opacity="0.25"/>
<path d="M14.0858 34.7109V36.5876H15.5684V40.3402H14.0858V42.2162H17.7927V34.7109H14.0858Z" fill="#969696" fill-opacity="0.25"/>
<path d="M14.0858 46.9066V48.7832H15.5684V52.5353H14.0858V54.4119H17.7927V46.9066H14.0858Z" fill="#969696" fill-opacity="0.25"/>
<path d="M17.7927 83.4948H14.0858V90.9998H17.7927V83.4948Z" fill="#969696" fill-opacity="0.25"/>
<path d="M14.0858 71.2991V73.1751H15.5684V76.9277H14.0858V78.8038H17.7927V71.2991H14.0858Z" fill="#969696" fill-opacity="0.25"/>
<path d="M69.69 11.2581H65.9831V18.7632H69.69V11.2581Z" fill="#969696" fill-opacity="0.25"/>
<path d="M69.69 23.4539H65.9831V30.959H69.69V23.4539Z" fill="#969696" fill-opacity="0.25"/>
<path d="M65.9831 71.2991V73.1751H67.4657V76.9277H65.9831V78.8038H69.69V71.2991H65.9831Z" fill="#969696" fill-opacity="0.25"/>
<path d="M65.9831 83.4948V85.3714H67.4657V89.124H65.9831V91H69.69V83.4948H65.9831Z" fill="#969696" fill-opacity="0.25"/>
<path d="M58.5687 0H54.8618V7.50509H58.5687V0Z" fill="#969696" fill-opacity="0.25"/>
<path d="M58.5688 59.1033H54.8619V66.6084H58.5688V59.1033Z" fill="#969696" fill-opacity="0.25"/>
<path d="M54.8619 22.5153V24.3913H56.3449V28.1439H54.8619V30.0199H58.5687V22.5153H54.8619Z" fill="#969696" fill-opacity="0.25"/>
<path d="M54.8619 34.7109V36.5876H56.3449V40.3402H54.8619V42.2162H58.5687V34.7109H54.8619Z" fill="#969696" fill-opacity="0.25"/>
<path d="M54.8619 46.9066V48.7832H56.3449V52.5353H54.8619V54.4119H58.5687V46.9066H54.8619Z" fill="#969696" fill-opacity="0.25"/>
<path d="M58.5688 83.4948H54.8619V90.9998H58.5688V83.4948Z" fill="#969696" fill-opacity="0.25"/>
<path d="M54.8619 71.2991V73.1751H56.3449V76.9277H54.8619V78.8038H58.5687V71.2991H54.8619Z" fill="#969696" fill-opacity="0.25"/>
<path d="M76.3626 0H72.6557V7.50509H76.3626V0Z" fill="#969696" fill-opacity="0.25"/>
<path d="M72.6557 46.9066V48.7832H74.1387V52.5353H72.6557V54.4119H76.3625V46.9066H72.6557Z" fill="white"/>
<path d="M76.3626 83.4948H72.6557V90.9998H76.3626V83.4948Z" fill="#969696" fill-opacity="0.25"/>
<path d="M72.6557 71.2991V73.1751H74.1387V76.9277H72.6557V78.8038H76.3625V71.2991H72.6557Z" fill="#969696" fill-opacity="0.25"/>
<path d="M1.48267 59.1033V60.9793H2.9657V64.7319H1.48267V66.6086H5.18954V59.1033H1.48267Z" fill="#969696" fill-opacity="0.25"/>
<path d="M43.7419 1.87622H40.035V9.38131H43.7419V1.87622Z" fill="#969696" fill-opacity="0.25"/>
<path d="M43.7419 14.0719H40.035V21.577H43.7419V14.0719Z" fill="#969696" fill-opacity="0.25"/>
<path d="M43.7411 27.2062H38.5515V28.1443H43.7411V27.2062Z" fill="#969696" fill-opacity="0.25"/>
<path d="M43.7411 87.2471H38.5515V88.1852H43.7411V87.2471Z" fill="#969696" fill-opacity="0.25"/>
<path d="M40.0341 35.6495V37.5256H41.5172V41.2782H40.0341V43.1542H43.741V35.6495H40.0341Z" fill="#969696" fill-opacity="0.25"/>
<path d="M40.0341 59.1033V60.9793H41.5172V64.7319H40.0341V66.6086H43.741V59.1033H40.0341Z" fill="#969696" fill-opacity="0.25"/>
<path d="M86.0004 83.4948H82.2935V90.9998H86.0004V83.4948Z" fill="#969696" fill-opacity="0.25"/>
<path d="M83.3667 62.4303L84.875 60.8963L91 67.1257L89.4917 68.6597L83.3667 62.4303Z" fill="white" fill-opacity="0.9"/>
<path d="M87.0005 50.3438C87.0005 58.4884 80.5086 65.091 72.5004 65.091C64.4922 65.091 58.0003 58.4884 58.0003 50.3438C58.0003 42.1991 64.4922 35.5966 72.5004 35.5966C80.5086 35.5966 87.0005 42.1991 87.0005 50.3438ZM59.6681 50.3438C59.6681 57.5516 65.4133 63.3948 72.5004 63.3948C79.5875 63.3948 85.3327 57.5516 85.3327 50.3438C85.3327 43.1359 79.5875 37.2928 72.5004 37.2928C65.4133 37.2928 59.6681 43.1359 59.6681 50.3438Z" fill="white" fill-opacity="0.9"/>
<path d="M86.0005 50.5389C86.0005 58.1218 79.9563 64.269 72.5004 64.269C65.0445 64.269 59.0003 58.1218 59.0003 50.5389C59.0003 42.9559 65.0445 36.8087 72.5004 36.8087C79.9563 36.8087 86.0005 42.9559 86.0005 50.5389Z" fill="white" fill-opacity="0.2"/>
<path d="M65.9831 45.969V47.845H67.4657V51.5976H65.9831V53.4743H69.69V45.969H65.9831Z" fill="white"/>
<path d="M72.6557 22.5153V24.3913H74.1387V28.1439H72.6557V30.0199H76.3625V22.5153H72.6557Z" fill="#969696" fill-opacity="0.25"/>
</svg>
