<svg width="137" height="40" viewBox="0 0 137 40" fill="none" xmlns="http://www.w3.org/2000/svg">
<path fill-rule="evenodd" clip-rule="evenodd" d="M6.34182 29.6193C6.25106 29.521 6.17001 29.4333 6.10899 29.3679C11.0967 24.6483 15.7283 19.5642 19.9657 14.1577C21.4912 12.2526 22.7972 10.1249 22.4753 7.47055C22.3722 6.92213 22.2304 6.38174 22.0511 5.85341C22.0857 9.30367 20.1892 11.7874 18.2767 14.2604C17.9486 14.686 17.5932 15.0897 17.2375 15.4938L17.2374 15.494C17.0438 15.7139 16.8502 15.9339 16.6608 16.1575C16.2317 16.7248 15.6527 17.1604 14.9894 17.4148C14.3261 17.6693 13.605 17.7325 12.9077 17.5973C11.9409 17.3371 10.9135 17.4259 10.0054 17.8483C9.09736 18.2706 8.36636 18.9996 7.94033 19.9077C7.62646 20.5733 7.45348 21.2969 7.43228 22.0328C7.38574 23.7006 6.43083 24.6885 4.80431 24.3965C3.53818 24.1356 2.28993 23.7941 1.06715 23.374C0.859035 23.3419 0.662261 23.2581 0.494876 23.13C0.327491 23.002 0.194858 22.8339 0.109098 22.6411C0.0233381 22.4483 -0.0127978 22.2371 0.00401895 22.0267C0.0208358 21.8163 0.0900648 21.6135 0.20535 21.4369C0.447322 20.8927 0.686761 20.3472 0.926196 19.8018L0.926213 19.8017L0.926314 19.8015C1.6212 18.2185 2.31606 16.6356 3.07271 15.083C3.15832 14.9075 3.24602 14.7331 3.33346 14.5593C4.06106 13.1127 4.77134 11.7005 4.12072 9.94626C4.01167 9.65162 4.37607 9.09568 4.64472 8.75706C5.5964 7.55658 6.57355 6.37126 7.55092 5.18567L7.55095 5.18564C7.83698 4.83867 8.12304 4.49168 8.40848 4.14428C8.20917 3.98105 8.02651 3.7984 7.86319 3.59901C7.48952 3.10374 7.13139 2.59468 6.707 1.99143C6.49852 1.69508 6.27404 1.376 6.02388 1.02465L9.84217 1.39128L9.12798 0.0581051C11.4288 -0.267189 12.5539 0.810015 13.9304 2.37249C14.0107 2.1705 14.1332 1.98806 14.2896 1.83744C14.4461 1.68683 14.6329 1.57151 14.8375 1.49926C18.8007 0.591366 23.8372 3.26705 27.0225 7.41989C27.7324 8.36573 28.1359 9.50709 28.1784 10.69C28.221 11.8729 27.9006 13.0404 27.2605 14.0351C25.9801 16.2514 24.5117 18.3532 22.8717 20.317C20.9163 22.7285 19.8749 23.823 17.0737 26.7674C15.5387 28.3809 13.4753 30.5499 10.4433 33.7954C9.67962 33.0725 9.05368 32.4262 8.4026 31.7539C7.99466 31.3327 7.57685 30.9013 7.10911 30.4345C6.92954 30.2554 6.59722 29.8957 6.34182 29.6193ZM13.6171 37.263C12.9321 36.5476 12.246 35.8311 11.5325 35.1592C12.7211 33.9428 13.7809 32.8661 14.7425 31.8892L14.7428 31.8888C19.4633 27.0932 21.8162 24.7027 25.4092 19.989C27.1446 17.929 28.2933 15.4377 28.7341 12.7779C28.7805 12.4512 28.8047 12.1212 28.8351 11.7072V11.7071L28.8351 11.707L28.8352 11.7058C28.8517 11.4798 28.8701 11.2287 28.895 10.9395C30.2928 13.3392 30.9883 16.085 30.9019 18.8625C30.7543 23.5393 28.3205 27.1202 25.4824 30.5345C23.7721 32.5915 18.5347 37.7576 16.2472 40C16.0704 39.8082 15.9648 39.6871 15.8769 39.5863L15.8768 39.5863C15.7246 39.4118 15.6253 39.298 15.3016 38.9828C14.7312 38.4266 14.1745 37.8451 13.6171 37.263ZM53.2651 16.8056C54.6962 18.231 56.5454 18.9438 58.8125 18.9438C61.0513 18.9438 62.8862 18.245 64.3174 16.8475C65.7627 15.436 66.4853 13.5982 66.4853 11.3342C66.4853 9.07022 65.7627 7.23247 64.3174 5.82096C62.8862 4.40945 61.0513 3.7037 58.8125 3.7037C56.5454 3.7037 54.6962 4.42343 53.2651 5.86289C51.834 7.28837 51.1184 9.11215 51.1184 11.3342C51.1184 13.5423 51.834 15.3661 53.2651 16.8056ZM62.0857 14.8141C61.2213 15.7364 60.1373 16.1976 58.8337 16.1976C57.4876 16.1976 56.3824 15.7295 55.5181 14.7931C54.6537 13.8568 54.2215 12.7038 54.2215 11.3342C54.2215 9.96464 54.6537 8.81168 55.5181 7.87533C56.3824 6.93899 57.4876 6.47081 58.8337 6.47081C60.1373 6.47081 61.2213 6.932 62.0857 7.85437C62.95 8.77674 63.3822 9.93669 63.3822 11.3342C63.3822 12.7318 62.95 13.8917 62.0857 14.8141ZM39.8 3.89237V18.7761H42.7543V13.137H48.6418V10.4957H42.7543V6.5337H49.8108V3.89237H39.8ZM80.7956 18.7761H77.2674L73.888 13.6821H72.1451V18.7761H69.1908V3.89237H74.9082C76.651 3.89237 77.9617 4.34657 78.8402 5.25496C79.7187 6.14938 80.158 7.34427 80.158 8.83963C80.158 11.1595 79.1236 12.6549 77.0549 13.3257L80.7956 18.7761ZM72.1451 6.51274V11.0827H74.228C75.1349 11.0827 75.8363 10.88 76.3322 10.4747C76.8281 10.0555 77.0761 9.48948 77.0761 8.77674C77.0761 8.07797 76.8352 7.52595 76.3535 7.12066C75.8859 6.71538 75.2199 6.51274 74.3556 6.51274H72.1451ZM93.4275 12.2147C92.9032 11.5578 92.1523 11.1106 91.1746 10.873V10.8521C91.9539 10.5586 92.5277 10.1114 92.8961 9.51044C93.2646 8.9095 93.4488 8.24568 93.4488 7.51896C93.4488 6.33106 93.0237 5.42965 92.1735 4.81474C91.3375 4.19983 90.1189 3.89237 88.5178 3.89237H83.0766V18.7761H89.3254C90.9124 18.7761 92.1239 18.3987 92.9599 17.6441C93.8101 16.8894 94.2352 15.8972 94.2352 14.6673C94.2352 13.6891 93.966 12.8715 93.4275 12.2147ZM86.0097 9.99259V6.49178H87.9651C89.6088 6.49178 90.4306 7.07175 90.4306 8.2317C90.4306 8.80469 90.211 9.24491 89.7718 9.55237C89.3325 9.84585 88.7941 9.99259 88.1564 9.99259H86.0097ZM90.3881 15.6945C89.9064 16.0159 89.2546 16.1767 88.4327 16.1767H86.0097V12.3614H88.454C89.3325 12.3614 89.9914 12.5361 90.4306 12.8855C90.8841 13.2209 91.1108 13.6891 91.1108 14.29C91.1108 14.9049 90.8699 15.3731 90.3881 15.6945ZM103.584 18.9438C101.316 18.9438 99.4673 18.231 98.0362 16.8056C96.6051 15.3661 95.8895 13.5423 95.8895 11.3342C95.8895 9.11215 96.6051 7.28837 98.0362 5.86289C99.4673 4.42343 101.316 3.7037 103.584 3.7037C105.822 3.7037 107.657 4.40945 109.088 5.82096C110.534 7.23247 111.256 9.07022 111.256 11.3342C111.256 13.5982 110.534 15.436 109.088 16.8475C107.657 18.245 105.822 18.9438 103.584 18.9438ZM103.605 16.1976C104.908 16.1976 105.992 15.7364 106.857 14.8141C107.721 13.8917 108.153 12.7318 108.153 11.3342C108.153 9.93669 107.721 8.77674 106.857 7.85437C105.992 6.932 104.908 6.47081 103.605 6.47081C102.259 6.47081 101.154 6.93899 100.289 7.87533C99.4248 8.81168 98.9927 9.96464 98.9927 11.3342C98.9927 12.7038 99.4248 13.8568 100.289 14.7931C101.154 15.7295 102.259 16.1976 103.605 16.1976ZM116.959 3.89237H113.962V18.7761H123.675V16.1557H116.959V3.89237ZM126 3.89237H135.65V6.5337H128.934V10.0974H134.311V12.6968H128.934V16.1557H136.096V18.7761H126V3.89237ZM133.378 36.363C132.207 36.363 131.23 35.9323 130.446 35.0711L130.886 34.5615C131.194 34.9328 131.57 35.2173 132.013 35.4148C132.456 35.6123 132.911 35.7111 133.378 35.7111C133.964 35.7111 134.443 35.5728 134.814 35.2963C135.194 35.0118 135.384 34.6405 135.384 34.1822C135.384 33.9215 135.337 33.6963 135.242 33.5067C135.155 33.3091 135.016 33.1432 134.826 33.0089C134.644 32.8746 134.45 32.76 134.245 32.6652C134.047 32.5704 133.798 32.4637 133.497 32.3452C133.48 32.3409 133.464 32.3366 133.449 32.3323C133.436 32.3287 133.425 32.3251 133.414 32.3215C133.398 32.3136 133.374 32.3057 133.343 32.2978C133.319 32.282 133.295 32.2701 133.271 32.2622C133.01 32.1595 132.836 32.0923 132.749 32.0607C132.67 32.0291 132.512 31.962 132.274 31.8593C132.037 31.7486 131.871 31.6617 131.776 31.5985C131.689 31.5353 131.562 31.4405 131.396 31.3141C131.238 31.1876 131.123 31.0652 131.052 30.9467C130.988 30.8202 130.925 30.6741 130.862 30.5081C130.806 30.3343 130.779 30.1486 130.779 29.9511C130.779 29.3506 131.016 28.8489 131.491 28.4459C131.974 28.0351 132.567 27.8296 133.271 27.8296C134.197 27.8296 135.052 28.1417 135.835 28.7659L135.408 29.3111C134.735 28.758 134.023 28.4815 133.271 28.4815C132.789 28.4815 132.373 28.6079 132.025 28.8607C131.677 29.1136 131.503 29.4612 131.503 29.9037C131.503 30.0064 131.511 30.1052 131.527 30.2C131.55 30.2869 131.574 30.3659 131.598 30.437C131.621 30.5002 131.665 30.5714 131.728 30.6504C131.792 30.7215 131.843 30.7807 131.883 30.8281C131.922 30.8676 131.993 30.919 132.096 30.9822C132.199 31.0454 132.27 31.0928 132.31 31.1244C132.357 31.156 132.448 31.2035 132.583 31.2667C132.725 31.322 132.82 31.3615 132.868 31.3852C132.915 31.401 133.018 31.4405 133.176 31.5037C133.343 31.5669 133.449 31.6064 133.497 31.6222C134.344 31.962 134.89 32.2109 135.135 32.3689C135.776 32.7797 136.096 33.3605 136.096 34.1111C136.096 34.7906 135.835 35.3358 135.313 35.7467C134.799 36.1575 134.154 36.363 133.378 36.363ZM46.1149 27.8889H46.839L43.6341 36.3037H43.005L39.8002 27.8889H40.5361L43.3018 35.3081H43.3255L46.1149 27.8889ZM53.6548 36.3037V27.8889H58.6876V28.517H54.3195V31.7881H57.9517V32.4281H54.3195V35.6637H58.9369V36.3037H53.6548ZM72.6221 27.8889H71.9574V35.1659H71.9337L66.6041 27.8889H65.9512V36.3037H66.616V29.0622H66.6397L71.9456 36.3037H72.6221V27.8889ZM82.048 36.3037V28.517H79.4128V27.8889H85.3953V28.517H82.7246V36.3037H82.048ZM92.9615 35.4385C93.5471 36.0548 94.3147 36.363 95.2643 36.363C96.2297 36.363 97.0013 36.0548 97.5789 35.4385C98.1645 34.8222 98.4573 33.9807 98.4573 32.9141V27.8889H97.7926V32.8548C97.7926 33.7397 97.5591 34.4351 97.0923 34.9407C96.6333 35.4464 96.024 35.6993 95.2643 35.6993C94.5046 35.6993 93.8953 35.4425 93.4363 34.9289C92.9853 34.4153 92.7597 33.7239 92.7597 32.8548V27.8889H92.095V32.9141C92.095 33.9807 92.3839 34.8222 92.9615 35.4385ZM111.611 36.3037H110.768L108.43 32.9022H106.531V36.3037H105.866V27.8889H108.739C109.649 27.8889 110.325 28.118 110.768 28.5763C111.219 29.0267 111.445 29.6272 111.445 30.3778C111.445 31.1126 111.247 31.6894 110.852 32.1081C110.456 32.519 109.914 32.7718 109.225 32.8667L111.611 36.3037ZM106.531 28.517V32.2622H108.513C109.281 32.2622 109.843 32.0923 110.199 31.7526C110.555 31.4128 110.733 30.9546 110.733 30.3778C110.733 29.7694 110.555 29.3072 110.199 28.9911C109.85 28.6751 109.356 28.517 108.715 28.517H106.531ZM118.696 27.8889V36.3037H123.978V35.6637H119.361V32.4281H122.993V31.7881H119.361V28.517H123.729V27.8889H118.696Z" fill="white"/>
</svg>
