<svg width="139" height="103" viewBox="0 0 139 103" fill="none" xmlns="http://www.w3.org/2000/svg">
<g style="mix-blend-mode:luminosity">
<path d="M3.97326 103H135.027C136.081 103 137.091 102.574 137.836 101.815C138.581 101.057 139 100.028 139 98.9547V4.04528C139 2.9724 138.581 1.94348 137.836 1.18484C137.091 0.426202 136.081 0 135.027 0H3.97326C2.91949 0 1.90887 0.426202 1.16374 1.18484C0.418608 1.94348 0 2.9724 0 4.04528V98.9547C0 100.028 0.418608 101.057 1.16374 101.815C1.90887 102.574 2.91949 103 3.97326 103Z" fill="#A7A7A7" fill-opacity="0.15"/>
</g>
<g style="mix-blend-mode:luminosity" opacity="0.3">
<path d="M61.357 73.427C60.9571 73.427 60.5735 73.7155 60.2908 74.229C60.008 74.7426 59.8491 75.4391 59.8491 76.1653C59.8491 76.8915 60.008 77.588 60.2908 78.1016C60.5735 78.6151 60.9571 78.9036 61.357 78.9036H118.191C118.59 78.9036 118.974 78.6151 119.257 78.1016C119.54 77.588 119.698 76.8915 119.698 76.1653C119.698 75.4391 119.54 74.7426 119.257 74.229C118.974 73.7155 118.59 73.427 118.191 73.427H61.357Z" fill="#A7A7A7" fill-opacity="0.6"/>
</g>
<g style="mix-blend-mode:luminosity" opacity="0.3">
<path d="M61.357 83.2849C60.9571 83.2849 60.5735 83.5733 60.2908 84.0869C60.008 84.6004 59.8491 85.2969 59.8491 86.0231C59.8491 86.7494 60.008 87.4459 60.2908 87.9594C60.5735 88.473 60.9571 88.7614 61.357 88.7614H118.191C118.59 88.7614 118.974 88.473 119.257 87.9594C119.54 87.4459 119.698 86.7494 119.698 86.0231C119.698 85.2969 119.54 84.6004 119.257 84.0869C118.974 83.5733 118.59 83.2849 118.191 83.2849H61.357Z" fill="#A7A7A7" fill-opacity="0.6"/>
</g>
<path fill-rule="evenodd" clip-rule="evenodd" d="M73.1546 27.4236H51.5374C51.3202 27.4236 51.144 27.6009 51.144 27.8196V44.6084C51.144 44.8271 51.3202 45.0044 51.5374 45.0044H73.1546C73.3719 45.0044 73.548 44.8271 73.548 44.6084V27.8196C73.548 27.6009 73.3719 27.4236 73.1546 27.4236ZM51.5374 25.233C50.1182 25.233 48.9677 26.391 48.9677 27.8196V44.6084C48.9677 46.037 50.1182 47.195 51.5374 47.195H73.1546C74.5738 47.195 75.7243 46.037 75.7243 44.6084V27.8196C75.7243 26.391 74.5738 25.233 73.1546 25.233H51.5374Z" fill="white" fill-opacity="0.5"/>
<path fill-rule="evenodd" clip-rule="evenodd" d="M87.7488 32.8039H66.1316C65.9143 32.8039 65.7382 32.9812 65.7382 33.1999V49.9888C65.7382 50.2074 65.9143 50.3847 66.1316 50.3847H87.7488C87.966 50.3847 88.1422 50.2074 88.1422 49.9888V33.1999C88.1422 32.9812 87.966 32.8039 87.7488 32.8039ZM66.1316 30.6133C64.7123 30.6133 63.5619 31.7713 63.5619 33.1999V49.9888C63.5619 51.4173 64.7123 52.5753 66.1316 52.5753H87.7488C89.168 52.5753 90.3185 51.4173 90.3185 49.9888V33.1999C90.3185 31.7713 89.168 30.6133 87.7488 30.6133H66.1316Z" fill="white" fill-opacity="0.5"/>
<path fill-rule="evenodd" clip-rule="evenodd" d="M30.7993 77.8079C32.0817 77.8079 33.5481 77.4648 35.0362 76.8236C35.0828 76.8039 35.1291 76.7828 35.1752 76.7611C35.2176 76.7413 35.2597 76.7208 35.3011 76.7005L35.3196 76.6916L35.3226 76.6901C35.9512 76.5262 36.6052 76.3017 37.2587 76.0163C41.4567 74.1947 43.2307 71.2854 43.488 69.1453C43.7972 66.5269 42.2201 64.0228 40.2379 62.1443C39.2949 60.9846 38.1261 59.9695 36.9647 59.1861C35.4938 58.1907 33.9875 57.5086 32.6627 57.1943C31.3427 56.8811 30.1825 56.9286 29.4221 57.422C28.6914 57.8935 28.154 58.7902 27.7831 60.1316C27.2415 60.7951 26.8428 61.7992 26.5707 63.1629C26.296 64.5401 26.1489 66.2935 26.1198 68.4533C26.0905 70.7125 26.2376 72.5613 26.5624 73.9875C26.8866 75.4114 27.3911 76.4281 28.0884 77.0052C28.7259 77.5336 29.6682 77.8079 30.7993 77.8079ZM36.0315 74.7006C37.408 74.1026 38.5253 73.3871 39.4171 72.6187C38.547 73.8295 37.154 75.0449 35.0944 75.9997C34.6358 76.1156 34.1932 76.1957 33.7738 76.2401C33.335 76.2866 32.9212 76.2938 32.5403 76.2619C31.7924 76.1994 31.1778 75.9868 30.7461 75.6311L30.6956 75.5868C31.0349 75.6506 31.402 75.6852 31.7941 75.6852C33.0765 75.6852 34.5434 75.3419 36.0315 74.7006ZM40.5637 69.8596C40.5543 69.9528 40.54 70.0477 40.5218 70.1454C40.5048 70.2357 40.4843 70.3284 40.4609 70.4246C39.5546 71.7178 38.0487 73.0292 35.7666 74.0224C34.5956 74.531 33.4606 74.8331 32.4592 74.9278C31.472 75.021 30.6219 74.9123 29.9945 74.6091C29.3257 73.2456 29.0007 70.9249 29.0455 67.656C29.0744 65.5942 29.2131 63.9174 29.4635 62.6102C29.7084 61.3311 30.0583 60.4165 30.508 59.8399C31.9126 59.9474 33.7595 60.6746 35.5892 61.9152C36.9186 62.8154 38.2572 64.0261 39.2155 65.402C40.1746 66.7786 40.747 68.3109 40.5637 69.8596ZM35.9702 61.3021C34.3539 60.209 32.694 59.4921 31.2788 59.2276C31.4378 59.1601 31.6172 59.1099 31.817 59.0779C31.9883 59.0505 32.1746 59.0364 32.3754 59.0364C33.8529 59.0364 35.8879 59.8116 37.8242 61.1219C38.4834 61.5652 39.1426 62.0892 39.7572 62.6734C40.9796 64.1872 41.7731 65.9547 41.5649 67.7371C41.5228 68.0951 41.4323 68.4796 41.285 68.8772C41.1827 67.4208 40.5445 66.023 39.6374 64.7775C38.6337 63.3987 37.2954 62.1989 35.9702 61.3021ZM28.4152 60.484C28.5345 60.3555 28.6638 60.2459 28.7979 60.1601C28.9102 60.0868 29.0354 60.0259 29.1729 59.9772C29.3163 59.9265 29.4736 59.8891 29.6438 59.8649C29.2427 60.5655 28.9408 61.5134 28.7294 62.722C28.4987 64.0394 28.374 65.6731 28.3482 67.6462C28.3144 70.0596 28.4854 72.0041 28.8607 73.4664C28.552 72.9034 28.3085 72.1497 28.1345 71.2033C27.8989 69.9214 27.7922 68.2962 27.8181 66.3335C27.8501 63.822 28.048 61.8804 28.4152 60.484ZM31.1482 57.714C32.2022 57.714 33.5459 58.1114 34.9362 58.8202C34.311 58.5982 33.711 58.4461 33.1551 58.3691C32.1457 58.2296 31.2685 58.336 30.6556 58.7376C30.4913 58.8438 30.3459 58.9679 30.203 59.1144C29.6796 59.1076 29.2069 59.1822 28.8087 59.3454C29.0842 58.7176 29.4191 58.2894 29.7996 58.0441C30.1278 57.8272 30.5783 57.714 31.1482 57.714ZM29.3656 75.0757L29.3996 75.0979C29.4297 75.1172 29.4605 75.1364 29.4916 75.1552C29.7261 75.5869 30.0009 75.9356 30.3168 76.1982C30.7894 76.5909 31.4292 76.84 32.1884 76.9453C31.5063 77.0698 30.8713 77.1075 30.3087 77.0596C29.5638 76.9963 28.9521 76.7836 28.5236 76.431C27.943 75.9477 27.5007 75.0466 27.2127 73.7093C26.9251 72.375 26.7945 70.6222 26.8233 68.4561C26.8514 66.337 26.9973 64.6269 27.2615 63.3052C27.1809 64.2075 27.1333 65.2126 27.121 66.3239C27.0885 68.5831 27.2356 70.4319 27.5611 71.8581C27.8864 73.2821 28.3925 74.2988 29.0896 74.8759L29.0916 74.8774C29.1594 74.9307 29.2289 74.9823 29.3011 75.0321L29.3656 75.0757ZM42.2544 67.8295C42.3367 67.1237 42.2822 66.4256 42.1206 65.747C42.6518 66.8073 42.9219 67.9315 42.7859 69.0593C42.5979 70.6372 41.4387 72.7475 38.79 74.4018C40.0585 73.1974 40.7924 71.8948 41.1036 70.7372C41.7901 69.7259 42.1492 68.7117 42.2544 67.8295Z" fill="white"/>
<path fill-rule="evenodd" clip-rule="evenodd" d="M13.4514 13.1841C12.0322 13.1841 10.8817 14.3421 10.8817 15.7707V64.2681C10.8817 65.6966 12.0322 66.8547 13.4514 66.8547H17.4467C18.0071 58.2919 25.0848 51.5212 33.7335 51.5212C42.3822 51.5212 49.4598 58.2919 50.0203 66.8547H122.57C123.989 66.8547 125.139 65.6966 125.139 64.2681V15.7707C125.139 14.3421 123.989 13.1841 122.57 13.1841H13.4514Z" fill="#EAEAEA" fill-opacity="0.15"/>
<path d="M50.0557 67.95C50.0557 77.024 42.7479 84.3798 33.7332 84.3798C24.7185 84.3798 17.4107 77.024 17.4107 67.95C17.4107 58.8761 24.7185 51.5203 33.7332 51.5203C42.7479 51.5203 50.0557 58.8761 50.0557 67.95Z" fill="#C4C4C4" fill-opacity="0.4"/>
<path fill-rule="evenodd" clip-rule="evenodd" d="M50.0213 69.0256L48.9354 68.955C48.9567 68.6229 48.9676 68.2878 48.9676 67.95C48.9676 67.6123 48.9567 67.2772 48.9354 66.9451L50.0213 66.8745C50.0441 67.23 50.0557 67.5887 50.0557 67.95C50.0557 68.3114 50.0441 68.6701 50.0213 69.0256ZM49.7451 64.7436C49.6056 64.0339 49.4207 63.3406 49.1935 62.6669L48.1631 63.0189C48.375 63.6473 48.5474 64.294 48.6776 64.9561L49.7451 64.7436ZM48.3757 60.6818L47.4001 61.1669C47.1046 60.5649 46.7709 59.9851 46.4022 59.4307L47.3065 58.8214C47.7015 59.4153 48.059 60.0366 48.3757 60.6818ZM46.0054 57.1171L45.1875 57.8396C44.7487 57.3363 44.2777 56.8622 43.7777 56.4205L44.4955 55.5973C45.0309 56.0703 45.5354 56.5781 46.0054 57.1171ZM42.8023 54.2876L42.1969 55.1978C41.6461 54.8266 41.0701 54.4908 40.472 54.1933L40.954 53.2113C41.595 53.5301 42.2122 53.89 42.8023 54.2876ZM38.9818 52.3881L38.6321 53.4253C38.0079 53.2121 37.3654 53.0385 36.7076 52.9075L36.9187 51.833C37.6238 51.9734 38.3126 52.1595 38.9818 52.3881ZM34.8018 51.5549L34.7316 52.6479C34.4017 52.6265 34.0688 52.6156 33.7332 52.6156C33.3976 52.6156 33.0647 52.6265 32.7348 52.6479L32.6646 51.5549C33.0179 51.5319 33.3742 51.5203 33.7332 51.5203C34.0922 51.5203 34.4485 51.5319 34.8018 51.5549ZM30.5477 51.833L30.7588 52.9075C30.101 53.0385 29.4586 53.2121 28.8343 53.4253L28.4846 52.3881C29.1538 52.1595 29.8426 51.9734 30.5477 51.833ZM26.5124 53.2113L26.9944 54.1933C26.3963 54.4908 25.8203 54.8266 25.2695 55.1978L24.6642 54.2876C25.2542 53.89 25.8714 53.5301 26.5124 53.2113ZM22.9709 55.5973L23.6887 56.4205C23.1888 56.8622 22.7177 57.3363 22.2789 57.8396L21.4611 57.1171C21.931 56.5781 22.4355 56.0703 22.9709 55.5973ZM20.16 58.8214L21.0642 59.4307C20.6955 59.9851 20.3618 60.5649 20.0663 61.1669L19.0907 60.6818C19.4074 60.0366 19.765 59.4153 20.16 58.8214ZM18.2729 62.6669L19.3033 63.0189C19.0915 63.6473 18.919 64.294 18.7888 64.9561L17.7214 64.7436C17.8608 64.0339 18.0457 63.3406 18.2729 62.6669ZM17.4451 66.8745C17.4223 67.23 17.4107 67.5887 17.4107 67.95C17.4107 68.3114 17.4223 68.6701 17.4451 69.0256L18.531 68.955C18.5097 68.6229 18.4988 68.2878 18.4988 67.95C18.4988 67.6123 18.5097 67.2772 18.531 66.9451L17.4451 66.8745ZM17.7214 71.1565L18.7888 70.9439C18.919 71.6061 19.0915 72.2528 19.3033 72.8811L18.2729 73.2332C18.0457 72.5595 17.8608 71.8662 17.7214 71.1565ZM19.0907 75.2183L20.0663 74.7331C20.3618 75.3352 20.6955 75.915 21.0642 76.4693L20.16 77.0787C19.765 76.4848 19.4074 75.8635 19.0907 75.2183ZM21.4611 78.783L22.2789 78.0605C22.7177 78.5638 23.1888 79.0379 23.6887 79.4796L22.9709 80.3028C22.4355 79.8298 21.931 79.322 21.4611 78.783ZM24.6642 81.6125L25.2695 80.7023C25.8203 81.0734 26.3963 81.4093 26.9944 81.7068L26.5124 82.6888C25.8714 82.37 25.2542 82.0101 24.6642 81.6125ZM28.4846 83.512L28.8343 82.4747C29.4586 82.688 30.101 82.8616 30.7588 82.9926L30.5477 84.0671C29.8426 83.9267 29.1538 83.7406 28.4846 83.512ZM32.6646 84.3452L32.7348 83.2521C33.0647 83.2736 33.3976 83.2845 33.7332 83.2845C34.0688 83.2845 34.4017 83.2736 34.7316 83.2521L34.8018 84.3452C34.4485 84.3682 34.0922 84.3798 33.7332 84.3798C33.3742 84.3798 33.0179 84.3682 32.6646 84.3452ZM36.9187 84.0671C37.6238 83.9267 38.3126 83.7406 38.9818 83.512L38.6321 82.4747C38.0079 82.688 37.3654 82.8616 36.7076 82.9926L36.9187 84.0671ZM40.954 82.6888L40.472 81.7068C41.0701 81.4093 41.6461 81.0734 42.1969 80.7023L42.8023 81.6125C42.2122 82.0101 41.595 82.37 40.954 82.6888ZM44.4955 80.3028L43.7777 79.4796C44.2777 79.0379 44.7487 78.5638 45.1875 78.0605L46.0054 78.783C45.5354 79.322 45.0309 79.8298 44.4955 80.3028ZM47.3065 77.0787L46.4022 76.4693C46.7709 75.915 47.1046 75.3352 47.4001 74.7331L48.3757 75.2183C48.059 75.8635 47.7015 76.4848 47.3065 77.0787ZM49.1935 73.2332L48.1631 72.8811C48.375 72.2528 48.5474 71.6061 48.6776 70.9439L49.7451 71.1565C49.6056 71.8662 49.4207 72.5595 49.1935 73.2332Z" fill="#C8C8C8" fill-opacity="0.5"/>
</svg>
