<svg width="45" height="26" viewBox="0 0 45 26" fill="none" xmlns="http://www.w3.org/2000/svg">
<path fill-rule="evenodd" clip-rule="evenodd" d="M35.1266 20.2178C33.3864 20.2178 31.969 18.8004 31.969 17.0602C31.969 15.32 33.3864 13.9026 35.1266 13.9026C36.8668 13.9026 38.2842 15.32 38.2842 17.0602C38.2842 18.8004 36.8668 20.2178 35.1266 20.2178ZM35.1266 8.12067C30.1867 8.12067 26.1871 12.1203 26.1871 17.0602C26.1871 22.0001 30.1867 25.9997 35.1266 25.9997C40.0665 25.9997 44.0661 22.0001 44.0661 17.0602C44.0661 12.1203 40.0665 8.12067 35.1266 8.12067Z" fill="white"/>
<path fill-rule="evenodd" clip-rule="evenodd" d="M0 8.12067V25.9997H6.38538V8.12067H6.37135H0Z" fill="white"/>
<path fill-rule="evenodd" clip-rule="evenodd" d="M16.6022 12.5834L12.1394 8.12067H7.66264V12.5834L12.1394 17.0602L7.66264 21.537V25.9997H12.1394L16.6022 21.537L21.079 25.9997H25.5417V21.537L21.079 17.0602L25.5417 12.5834V8.12067H21.079L16.6022 12.5834Z" fill="white"/>
<path fill-rule="evenodd" clip-rule="evenodd" d="M3.19971 6.84387C1.43145 6.84387 0 5.41243 0 3.64417C0 1.87591 1.43145 0.444458 3.19971 0.444458C4.96797 0.444458 6.39941 1.87591 6.39941 3.64417C6.38538 5.41243 4.95393 6.84387 3.19971 6.84387Z" fill="white"/>
</svg>
