<svg width="29" height="34" viewBox="0 0 29 34" fill="none" xmlns="http://www.w3.org/2000/svg">
<path d="M9.87907 15.2365H9.18463V19.4032H9.98903V16.6832L11.8987 19.4032H12.5932V15.2365H11.7946V17.9564L9.87907 15.2365Z" fill="white"/>
<path d="M16.0658 16.0235V15.2365H13.5195V19.4032H14.3065V17.7133H15.7186V16.9263H14.3065V16.0235H16.0658Z" fill="white"/>
<path d="M19.6537 15.2365H16.2394V16.0235H17.553V19.4032H18.3401V16.0235H19.6537V15.2365Z" fill="white"/>
<path d="M28.4433 9.24256C28.4433 9.23537 28.4383 9.22957 28.4379 9.22245C28.4365 9.15718 28.4194 9.09321 28.388 9.03596L28.3869 9.03365C28.3528 8.97732 28.3055 8.93008 28.2492 8.89599C28.2434 8.89225 28.241 8.88523 28.235 8.88177L14.4856 0.943952C14.4794 0.940391 14.472 0.941846 14.4658 0.938624C14.4091 0.907635 14.3458 0.890586 14.2812 0.888885H14.2732C14.2086 0.890586 14.1454 0.907635 14.0887 0.938624C14.0824 0.941846 14.075 0.940391 14.0689 0.943952L0.319448 8.88177C0.313515 8.8852 0.311115 8.89212 0.30541 8.89578C0.248898 8.92984 0.201549 8.97718 0.16747 9.03369L0.166415 9.03596C0.135045 9.09321 0.117925 9.15718 0.116504 9.22245C0.116132 9.22957 0.111115 9.23537 0.111115 9.24256V25.1193C0.111115 25.1265 0.116115 25.1323 0.116504 25.1394C0.117925 25.2047 0.135045 25.2686 0.166415 25.3259C0.202817 25.39 0.255641 25.4432 0.319448 25.4801L0.322326 25.4818L14.0689 33.4179C14.075 33.4215 14.0824 33.42 14.0886 33.4232C14.146 33.4563 14.211 33.4738 14.2772 33.4738C14.3435 33.4738 14.4085 33.4563 14.4658 33.4232C14.4721 33.42 14.4795 33.4215 14.4856 33.4179L28.235 25.4801C28.2988 25.4432 28.3516 25.39 28.388 25.3259C28.4194 25.2686 28.4365 25.2047 28.438 25.1394C28.4383 25.1323 28.4433 25.1265 28.4433 25.1193L28.4433 9.24256ZM0.944448 9.9642L5.66667 12.6905V21.6708L0.944448 24.3976V9.9642ZM22.4716 11.9693L14.6939 7.47915V2.02651L27.1936 9.24253L22.4716 11.9693ZM14.2772 26.161L6.5 21.6715V12.6904L14.2772 8.2009L22.0544 12.6903V21.6715L14.2772 26.161ZM13.8606 7.47915L6.08334 11.969L1.36091 9.2425L13.8606 2.02651V7.47915ZM6.08288 22.3926L13.8606 26.8827V32.3354L1.36083 25.1193L6.08288 22.3926ZM14.6939 26.8827L22.4711 22.3929L27.1935 25.1194L14.6939 32.3354V26.8827ZM22.8878 21.6713V12.691L27.61 9.96423V24.3977L22.8878 21.6713Z" fill="white"/>
</svg>
