<svg width="28" height="28" viewBox="0 0 28 28" fill="none" xmlns="http://www.w3.org/2000/svg">
<path fill-rule="evenodd" clip-rule="evenodd" d="M24.6215 5.93974C22.5876 3.34087 19.6497 1.72129 16.3729 1.72129C10.0452 1.72129 5.37477 7.63466 5.37477 14C5.37477 18.4445 8.35029 21.759 11.5895 21.759C11.8908 21.759 12.1921 21.7213 12.4934 21.6836C10.2712 20.064 8.8776 17.1638 8.8776 14C8.8776 8.95292 12.3051 5.03579 16.3352 5.03579C20.742 5.03579 23.7929 9.4049 23.7929 14C23.7552 17.4275 22.5499 20.8173 20.403 23.3032C18.5198 25.4878 16.1092 26.8814 13.435 27.2957C13.435 27.2957 13.661 27.3333 13.9623 27.3333C21.307 27.3333 27.2957 21.3446 27.2957 14C27.3333 10.9492 26.3164 8.16196 24.6215 5.93974ZM22.5876 14C22.5876 9.55556 19.6121 6.24106 16.3729 6.24106C16.0716 6.24106 15.7703 6.27872 15.4689 6.31639C17.6912 7.93598 19.0848 10.8362 19.0848 14C19.0848 19.0471 15.6573 22.9642 11.6271 22.9642C7.22035 22.9642 4.1695 18.5951 4.1695 14C4.20716 10.5725 5.41244 7.18268 7.55933 4.6968C9.44257 2.51225 11.8531 1.11865 14.5273 0.704336C14.5273 0.704336 14.3013 0.666672 14 0.666672C6.65538 0.666672 0.666672 6.65537 0.666672 14C0.666672 17.0132 1.68362 19.8004 3.37854 22.0603C5.41244 24.6591 8.35029 26.2787 11.6271 26.2787C17.9548 26.2411 22.5876 20.3654 22.5876 14Z" fill="white"/>
</svg>
