<svg width="48" height="38" viewBox="0 0 48 38" fill="none" xmlns="http://www.w3.org/2000/svg">
<g clip-path="url(#clip0_1120_742)">
<path d="M15.465 9.50292C8.45295 5.59117 5.72227 8.64773 5.10314 14.0805C3.49123 3.6299 6.78168 -0.320429 12.6323 2.32904C15.1573 3.48765 17.4943 5.01818 19.5656 6.86964C20.7753 7.93001 22.3361 8.5028 23.9446 8.4767" fill="#E1DFEB"/>
<path d="M23.9154 8.47695C25.5339 8.45433 27.0935 7.86614 28.3238 6.81432C30.4454 4.99643 32.8126 3.48658 35.3556 2.32929C41.2154 -0.320447 44.5104 3.62989 42.8963 14.0807C42.1661 14.5984 41.4511 15.1223 40.6958 15.6951C40.7648 14.0494 40.5385 12.1402 40.5134 10.7042C40.4325 6.02738 33.8575 7.72293 30.461 11.6614C28.4887 13.9483 31.1735 17.0766 34.2408 19.1552C34.7898 19.3114 35.35 19.4248 35.9164 19.4943C34.6771 20.5084 33.2529 21.6857 31.5563 23.0931C29.4251 21.0917 26.6979 18.5261 23.9721 16.1184" fill="#E1DFEB"/>
<path d="M24.0012 8.47645C22.4037 8.44154 20.8677 7.8543 19.6543 6.81462C17.5359 4.99723 15.172 3.48738 12.6323 2.3296C6.78087 -0.319333 3.49068 3.63019 5.10286 14.0802C5.83126 14.5977 6.54535 15.121 7.30045 15.6943C7.23247 14.0487 7.45828 12.1403 7.48229 10.7021C7.56322 6.02526 14.1288 7.72134 17.518 11.659C19.4873 13.9464 16.8068 17.075 13.7443 19.1526C13.1958 19.3085 12.636 19.422 12.0701 19.4922C13.3068 20.5071 14.729 21.6836 16.4232 23.0921C18.5523 21.0901 21.277 18.5224 24.0004 16.1138C26.7238 13.7052 24.0012 8.47645 24.0012 8.47645Z" fill="#E1DFEB"/>
<path d="M26.5714 29.6727C27.8846 32.6827 30.0832 35.2216 32.8747 36.9515C39.5622 40.2571 43.4459 35.1154 41.7503 29.5907C40.9893 27.1115 38.1402 22.2064 33.7094 20.4013C32.5974 19.9481 25.3407 26.7189 26.5714 29.6727ZM29.6069 24.7771C29.9217 23.0071 30.7766 23.1528 31.2479 23.3548C33.1633 24.1752 35.4659 26.1913 36.2803 28.2232C37.4439 31.1265 35.4475 32.9508 32.8442 31.2582C30.4688 29.7137 29.1696 27.2388 29.6069 24.7771Z" fill="#E1DFEB"/>
<path d="M14.2925 20.401C9.86199 22.2061 7.01262 27.1112 6.25185 29.5904C4.55604 35.1152 8.43973 40.2568 15.1275 36.9513C17.9191 35.2214 20.1178 32.6825 21.4311 29.6724C22.6615 26.7189 15.4048 19.9481 14.2925 20.401ZM15.158 31.2579C12.5546 32.9505 10.5583 31.1263 11.7218 28.2229C12.536 26.191 14.8396 24.1763 16.7542 23.3546C17.2255 23.1525 18.0805 23.0068 18.3953 24.7768C18.8329 27.2388 17.5333 29.7137 15.1577 31.2582L15.158 31.2579Z" fill="#E1DFEB"/>
<path d="M35.3676 2.32932C48.148 -2.09501 40.5993 20.5686 23.9998 20.5686C7.40017 20.5686 -0.148164 -2.0969 12.6319 2.32932C-1.29741 -4.90661 -4.90755 13.2253 11.7935 23.1423C16.7552 26.0885 21.7544 31.5153 15.1266 36.9518C19.3243 34.8627 20.3637 31.085 23.9995 31.085C27.6353 31.085 28.6747 34.8619 32.8724 36.9518C26.2446 31.515 31.2435 26.0885 36.2055 23.1423C52.9068 13.2264 49.2967 -4.90661 35.3676 2.32932Z" fill="white"/>
</g>
<defs>
<clipPath id="clip0_1120_742">
<rect width="46.6667" height="37.3259" fill="white" transform="translate(0.666672 0.666687)"/>
</clipPath>
</defs>
</svg>
