<svg width="32" height="32" viewBox="0 0 32 32" fill="none" xmlns="http://www.w3.org/2000/svg">
<g clip-path="url(#clip0_1119_556)">
<path fill-rule="evenodd" clip-rule="evenodd" d="M14.378 3.31899C7.34672 3.31899 1.63772 9.09759 1.63772 16.2149C1.63772 20.5875 3.79273 24.456 7.08848 26.7869C7.01851 26.2797 7.05989 25.7632 7.20266 25.3044C7.46434 24.4641 7.96437 23.5988 8.70852 22.8375C10.6081 20.8943 13.5367 19.281 16.4329 17.9548L17.1484 17.6132L17.1504 17.6169C18.6899 16.881 20.0101 16.1768 21.0833 15.5119C22.3282 14.7407 23.2044 14.0444 23.7112 13.4392C25.5426 11.2523 25.0363 9.18258 24.3874 8.24592C22.0551 5.24394 18.4368 3.31899 14.378 3.31899ZM17.4785 18.7955C19.1204 18.0166 20.5429 17.2628 21.7062 16.5421C22.988 15.748 23.9919 14.9719 24.6214 14.2202C26.842 11.5686 26.2938 8.87835 25.3527 7.53564L25.3444 7.52376L25.3355 7.51231C22.787 4.22428 18.8242 2.11115 14.378 2.11115C6.6877 2.11115 0.444458 8.43051 0.444458 16.2149C0.444458 21.9366 3.81757 26.8657 8.65898 29.0733L8.89867 29.1761L8.90958 29.1803C10.0219 29.6058 11.3379 29.4859 12.5016 29.0064C13.6706 28.5247 14.7563 27.6525 15.396 26.4734C16.5375 24.3696 17.3226 21.5254 17.4785 18.7955ZM16.2378 19.3754C16.0138 21.7349 15.3109 24.1212 14.3501 25.892C13.8625 26.7908 13.0087 27.4933 12.0517 27.8877C11.0938 28.2824 10.1017 28.3411 9.34174 28.0544L9.1528 27.9734C8.39178 27.5869 8.06687 26.5479 8.34076 25.6674C8.54321 25.0173 8.94079 24.3172 9.55672 23.6871C11.1536 22.0535 13.6138 20.6202 16.2378 19.3754ZM26.843 19.1536C26.5405 19.2824 26.279 19.5093 26.134 19.7857C25.8738 20.281 25.6629 20.9143 25.5385 21.579C26.2882 21.1721 26.9457 20.7296 27.3971 20.2523C27.5974 20.0405 27.7221 19.8098 27.7839 19.6048C27.8133 19.5074 27.8127 19.3863 27.7786 19.282C27.748 19.1883 27.7012 19.1369 27.657 19.111L27.6065 19.0886C27.4242 19.0203 27.1461 19.0245 26.843 19.1536ZM28.9155 19.9887C29.8038 20.8612 30.3623 22.1039 30.3623 23.4874C30.3623 26.1517 28.2988 28.2811 25.7985 28.2811C24.3566 28.2811 23.0647 27.5768 22.2254 26.4657C22.0561 26.2059 21.878 25.5578 22.4725 24.8242C22.6321 24.6273 22.9327 24.3739 23.4025 24.0731C23.7627 23.8425 24.2017 23.5971 24.7135 23.339L25.1622 23.1184C26.289 22.5852 27.4752 21.9163 28.259 21.0875C28.5763 20.7521 28.7955 20.3691 28.9155 19.9887ZM24.2488 22.224C23.6832 22.507 23.1841 22.7838 22.7647 23.0523C22.2569 23.3774 21.83 23.7126 21.55 24.0581C20.5818 25.2527 20.8032 26.503 21.2486 27.1597L21.2567 27.1716L21.2653 27.1831C22.3145 28.5819 23.9531 29.4889 25.7985 29.4889C28.9944 29.4889 31.5556 26.7811 31.5556 23.4874C31.5556 21.063 30.1718 18.9633 28.1683 18.0192L28.061 17.9715L28.0498 17.9671C27.5068 17.7524 26.8945 17.8213 26.3802 18.0403C25.8602 18.2617 25.3713 18.6644 25.0803 19.2188" fill="white"/>
</g>
<defs>
<clipPath id="clip0_1119_556">
<rect width="31.1111" height="31.1111" fill="white" transform="translate(0.444458 0.444458)"/>
</clipPath>
</defs>
</svg>
