<svg width="31" height="32" viewBox="0 0 31 32" fill="none" xmlns="http://www.w3.org/2000/svg">
<path d="M14.8095 10.0984V10.1178L12.985 0.485503L11.4712 0L10.5201 1.28172L14.8095 10.0984Z" fill="white"/>
<path d="M15.7993 6.07836L16.5757 9.80699L17.4103 6.02008L16.5951 5.47635L15.7993 6.07836Z" fill="white"/>
<path d="M21.5635 6.73862L20.5736 6.83573L19.4091 10.5255L21.9711 7.63197L21.5635 6.73862Z" fill="white"/>
<path d="M30.0257 7.51544V5.9424L28.4924 5.45691L21.311 12.1957L30.0257 7.51544Z" fill="white"/>
<path d="M12.4801 11.4957L10.3451 8.29144L10.3839 8.36912L10.3451 8.29144L9.37464 8.44679L9.21937 9.41778L12.4801 11.4957Z" fill="white"/>
<path d="M26.2211 14.7594L22.3975 15.5168L26.2211 16.3519L26.8034 15.5557L26.2211 14.7594Z" fill="white"/>
<path d="M10.772 15.5362L0.951042 14.2933L0 15.575L0.951042 16.8568L10.772 15.5362Z" fill="white"/>
<path d="M7.14189 17.6724L6.85078 18.5851L7.64652 19.1677L11.0431 17.2645L7.14189 17.6724Z" fill="white"/>
<path d="M8.26816 20.3718L8.22935 21.3429L9.16098 21.673L11.8782 18.8182L8.26816 20.3718Z" fill="white"/>
<path d="M13.1591 20.1385L10.2672 22.6825L10.5195 23.6147L11.5094 23.6535L13.1591 20.1385Z" fill="white"/>
<path d="M16.5948 21.2645L15.8184 25.032L16.6142 25.5952L17.41 25.0126L16.5948 21.2645Z" fill="white"/>
<path d="M30.0451 23.557L21.311 18.9156L28.5312 25.6155L30.0451 25.13V23.557Z" fill="white"/>
<path d="M20.418 24.2745L18.4577 20.9925L18.9042 24.76L19.8358 25.0513L20.418 24.2745Z" fill="white"/>
<path d="M14.8281 20.9925L10.5776 29.8287L11.5286 31.1104L13.0425 30.6249L14.8281 20.9925Z" fill="white"/>
</svg>
