<svg width="30" height="28" viewBox="0 0 30 28" fill="none" xmlns="http://www.w3.org/2000/svg">
<g style="mix-blend-mode:luminosity">
<path fill-rule="evenodd" clip-rule="evenodd" d="M5.58913 21C5.68279 20.8974 5.79596 20.815 5.92185 20.7578C6.04774 20.7005 6.18377 20.6695 6.3218 20.6667H29.3419C29.4394 20.668 29.5342 20.6978 29.6152 20.7525C29.6963 20.8071 29.76 20.8843 29.7988 20.9747C29.8375 21.065 29.8496 21.1648 29.8334 21.2619C29.8175 21.3591 29.774 21.4495 29.7084 21.5222L24.8288 27C24.7351 27.1025 24.622 27.1849 24.4961 27.2422C24.3702 27.2995 24.2342 27.3305 24.0961 27.3333H1.0613C0.963901 27.3319 0.868971 27.3021 0.787928 27.2475C0.706889 27.1929 0.643189 27.1157 0.604491 27.0253C0.565792 26.9349 0.553745 26.8352 0.569795 26.738C0.585846 26.6409 0.629314 26.5505 0.69497 26.4778L5.58913 21ZM29.7304 16.4592C29.796 16.532 29.8394 16.6224 29.8554 16.7195C29.8716 16.8167 29.8595 16.9164 29.8208 17.0068C29.782 17.0972 29.7183 17.1743 29.6372 17.229C29.5562 17.2836 29.4614 17.3134 29.3638 17.3148L6.33644 17.3333C6.19844 17.3305 6.06238 17.2995 5.93649 17.2422C5.81061 17.1849 5.69744 17.1025 5.6038 17L0.687643 11.5407C0.621989 11.468 0.578521 11.3776 0.562468 11.2805C0.546417 11.1833 0.558465 11.0836 0.597163 10.9932C0.635861 10.9028 0.699561 10.8257 0.780604 10.771C0.861643 10.7164 0.956574 10.6866 1.05397 10.6852L24.0815 10.6667C24.2195 10.6695 24.3555 10.7005 24.4814 10.7578C24.6073 10.815 24.7205 10.8974 24.8141 11L29.7304 16.4592ZM5.58913 0.99999C5.68279 0.897439 5.79596 0.815058 5.92185 0.75778C6.04774 0.700503 6.18377 0.66951 6.3218 0.666656L29.3567 0.685175C29.454 0.686562 29.549 0.71637 29.6301 0.771012C29.7111 0.825655 29.7749 0.902806 29.8133 0.993184C29.8521 1.08356 29.8642 1.18332 29.8482 1.28046C29.832 1.3776 29.7886 1.46798 29.7229 1.54073L24.8288 6.99999C24.7351 7.10255 24.622 7.18493 24.4961 7.24221C24.3702 7.29949 24.2342 7.33046 24.0961 7.33332H1.0613C0.963901 7.33193 0.868971 7.30213 0.787928 7.24749C0.706889 7.19285 0.643189 7.11568 0.604491 7.02532C0.565792 6.93493 0.553745 6.83518 0.569795 6.73805C0.585846 6.64091 0.629314 6.55052 0.69497 6.47777L5.58913 0.99999Z" fill="url(#paint0_linear_421_827)"/>
<path fill-rule="evenodd" clip-rule="evenodd" d="M5.58913 21C5.68279 20.8974 5.79596 20.815 5.92185 20.7578C6.04774 20.7005 6.18377 20.6695 6.3218 20.6667H29.3419C29.4394 20.668 29.5342 20.6978 29.6152 20.7525C29.6963 20.8071 29.76 20.8843 29.7988 20.9747C29.8375 21.065 29.8496 21.1648 29.8334 21.2619C29.8175 21.3591 29.774 21.4495 29.7084 21.5222L24.8288 27C24.7351 27.1025 24.622 27.1849 24.4961 27.2422C24.3702 27.2995 24.2342 27.3305 24.0961 27.3333H1.0613C0.963901 27.3319 0.868971 27.3021 0.787928 27.2475C0.706889 27.1929 0.643189 27.1157 0.604491 27.0253C0.565792 26.9349 0.553745 26.8352 0.569795 26.738C0.585846 26.6409 0.629314 26.5505 0.69497 26.4778L5.58913 21ZM29.7304 16.4592C29.796 16.532 29.8394 16.6224 29.8554 16.7195C29.8716 16.8167 29.8595 16.9164 29.8208 17.0068C29.782 17.0972 29.7183 17.1743 29.6372 17.229C29.5562 17.2836 29.4614 17.3134 29.3638 17.3148L6.33644 17.3333C6.19844 17.3305 6.06238 17.2995 5.93649 17.2422C5.81061 17.1849 5.69744 17.1025 5.6038 17L0.687643 11.5407C0.621989 11.468 0.578521 11.3776 0.562468 11.2805C0.546417 11.1833 0.558465 11.0836 0.597163 10.9932C0.635861 10.9028 0.699561 10.8257 0.780604 10.771C0.861643 10.7164 0.956574 10.6866 1.05397 10.6852L24.0815 10.6667C24.2195 10.6695 24.3555 10.7005 24.4814 10.7578C24.6073 10.815 24.7205 10.8974 24.8141 11L29.7304 16.4592ZM5.58913 0.99999C5.68279 0.897439 5.79596 0.815058 5.92185 0.75778C6.04774 0.700503 6.18377 0.66951 6.3218 0.666656L29.3567 0.685175C29.454 0.686562 29.549 0.71637 29.6301 0.771012C29.7111 0.825655 29.7749 0.902806 29.8133 0.993184C29.8521 1.08356 29.8642 1.18332 29.8482 1.28046C29.832 1.3776 29.7886 1.46798 29.7229 1.54073L24.8288 6.99999C24.7351 7.10255 24.622 7.18493 24.4961 7.24221C24.3702 7.29949 24.2342 7.33046 24.0961 7.33332H1.0613C0.963901 7.33193 0.868971 7.30213 0.787928 7.24749C0.706889 7.19285 0.643189 7.11568 0.604491 7.02532C0.565792 6.93493 0.553745 6.83518 0.569795 6.73805C0.585846 6.64091 0.629314 6.55052 0.69497 6.47777L5.58913 0.99999Z" fill="white" fill-opacity="0.8"/>
</g>
<defs>
<linearGradient id="paint0_linear_421_827" x1="1.44595" y1="27.9148" x2="29.274" y2="0.390439" gradientUnits="userSpaceOnUse">
<stop stop-color="#9945FF"/>
<stop offset="0.14" stop-color="#8A53F4"/>
<stop offset="0.42" stop-color="#6377D6"/>
<stop offset="0.79" stop-color="#24B0A7"/>
<stop offset="0.99" stop-color="#00D18C"/>
<stop offset="1" stop-color="#00D18C"/>
</linearGradient>
</defs>
</svg>
