<svg viewBox="0 0 91 91" fill="none" xmlns="http://www.w3.org/2000/svg">
<path d="M50.341 54.3284C50.341 61.4545 44.851 67.2313 38.0786 67.2313C31.3063 67.2313 25.8162 61.4545 25.8162 54.3284C25.8162 47.2022 31.3063 41.4254 38.0786 41.4254C44.851 41.4254 50.341 47.2022 50.341 54.3284Z" fill="white" fill-opacity="0.3"/>
<path d="M80.0284 30.2201C80.0284 34.9084 76.4165 38.7089 71.961 38.7089C67.5055 38.7089 63.8936 34.9084 63.8936 30.2201C63.8936 25.5319 67.5055 21.7314 71.961 21.7314C76.4165 21.7314 80.0284 25.5319 80.0284 30.2201Z" fill="white" fill-opacity="0.3"/>
<path d="M21.2978 8.82834C21.2978 13.7041 17.5415 17.6567 12.9078 17.6567C8.27409 17.6567 4.51773 13.7041 4.51773 8.82834C4.51773 3.95258 8.27409 0 12.9078 0C17.5415 0 21.2978 3.95258 21.2978 8.82834Z" fill="white" fill-opacity="0.3"/>
<path d="M12.9078 78.7768C12.9078 82.5274 10.0183 85.5678 6.45389 85.5678C2.8895 85.5678 0 82.5274 0 78.7768C0 75.0262 2.8895 71.9858 6.45389 71.9858C10.0183 71.9858 12.9078 75.0262 12.9078 78.7768Z" fill="white" fill-opacity="0.3"/>
<path d="M91 80.4739C91 86.2873 86.5213 91 80.9965 91C75.4717 91 70.9929 86.2873 70.9929 80.4739C70.9929 74.6605 75.4717 69.9478 80.9965 69.9478C86.5213 69.9478 91 74.6605 91 80.4739Z" fill="white" fill-opacity="0.3"/>
<path fill-rule="evenodd" clip-rule="evenodd" d="M38.0786 65.6993C44.0468 65.6993 48.885 60.6083 48.885 54.3284C48.885 48.0484 44.0468 42.9574 38.0786 42.9574C32.1104 42.9574 27.2722 48.0484 27.2722 54.3284C27.2722 60.6083 32.1104 65.6993 38.0786 65.6993ZM38.0786 67.2313C44.851 67.2313 50.341 61.4545 50.341 54.3284C50.341 47.2022 44.851 41.4254 38.0786 41.4254C31.3063 41.4254 25.8162 47.2022 25.8162 54.3284C25.8162 61.4545 31.3063 67.2313 38.0786 67.2313Z" fill="white" fill-opacity="0.9"/>
<path fill-rule="evenodd" clip-rule="evenodd" d="M12.9078 16.1246C16.7374 16.1246 19.8418 12.858 19.8418 8.82834C19.8418 4.79872 16.7374 1.53206 12.9078 1.53206C9.07821 1.53206 5.97372 4.79872 5.97372 8.82834C5.97372 12.858 9.07821 16.1246 12.9078 16.1246ZM12.9078 17.6567C17.5415 17.6567 21.2978 13.7041 21.2978 8.82834C21.2978 3.95258 17.5415 0 12.9078 0C8.27409 0 4.51773 3.95258 4.51773 8.82834C4.51773 13.7041 8.27409 17.6567 12.9078 17.6567Z" fill="white" fill-opacity="0.9"/>
<path fill-rule="evenodd" clip-rule="evenodd" d="M12.8532 79.6638L12.1313 79.5647C12.1633 79.3072 12.1798 79.0442 12.1798 78.7768C12.1798 78.5094 12.1633 78.2464 12.1313 77.9889L12.8532 77.8898C12.8892 78.1801 12.9078 78.4762 12.9078 78.7768C12.9078 79.0774 12.8892 79.3735 12.8532 79.6638ZM12.4181 76.1773L11.7456 76.4707C11.5527 75.9813 11.3001 75.5241 10.9972 75.1093L11.5744 74.6425C11.9157 75.1098 12.2005 75.6252 12.4181 76.1773ZM10.3829 73.3888L9.93933 73.9962C9.54509 73.6774 9.1106 73.4116 8.6455 73.2087L8.92436 72.5011C9.44905 72.73 9.93881 73.0297 10.3829 73.3888ZM7.29683 72.0432L7.20266 72.8028C6.95792 72.7692 6.70801 72.7518 6.45389 72.7518C6.19976 72.7518 5.94986 72.7692 5.70512 72.8028L5.61095 72.0432C5.88684 72.0053 6.16819 71.9858 6.45389 71.9858C6.73958 71.9858 7.02094 72.0053 7.29683 72.0432ZM3.98342 72.5011L4.26228 73.2087C3.79718 73.4116 3.36269 73.6774 2.96845 73.9962L2.52486 73.3888C2.96897 73.0297 3.45873 72.73 3.98342 72.5011ZM1.33338 74.6425L1.91062 75.1093C1.60766 75.5241 1.35507 75.9813 1.1622 76.4707L0.489724 76.1773C0.707303 75.6252 0.992101 75.1098 1.33338 74.6425ZM0.05455 77.8898C0.0185635 78.1801 0 78.4762 0 78.7768C0 79.0774 0.0185635 79.3735 0.0545501 79.6638L0.776433 79.5647C0.744508 79.3072 0.727998 79.0442 0.727998 78.7768C0.727998 78.5094 0.744508 78.2464 0.776433 77.9889L0.05455 77.8898ZM0.489725 81.3763L1.1622 81.0829C1.35507 81.5723 1.60766 82.0295 1.91062 82.4443L1.33338 82.9111C0.992101 82.4438 0.707303 81.9284 0.489725 81.3763ZM2.52486 84.1648L2.96845 83.5574C3.36269 83.8762 3.79718 84.142 4.26228 84.3449L3.98342 85.0525C3.45873 84.8236 2.96897 84.5239 2.52486 84.1648ZM5.61095 85.5104L5.70512 84.7508C5.94986 84.7844 6.19976 84.8018 6.45389 84.8018C6.70802 84.8018 6.95792 84.7844 7.20266 84.7508L7.29683 85.5104C7.02095 85.5483 6.73958 85.5678 6.45389 85.5678C6.16819 85.5678 5.88684 85.5483 5.61095 85.5104ZM8.92436 85.0525L8.6455 84.3449C9.1106 84.142 9.54509 83.8762 9.93933 83.5574L10.3829 84.1648C9.93881 84.5239 9.44905 84.8236 8.92436 85.0525ZM11.5744 82.9111L10.9972 82.4443C11.3001 82.0295 11.5527 81.5723 11.7456 81.0829L12.4181 81.3763C12.2005 81.9284 11.9157 82.4438 11.5744 82.9111Z" fill="white" fill-opacity="0.9"/>
<path fill-rule="evenodd" clip-rule="evenodd" d="M80.9965 89.4679C85.7171 89.4679 89.544 85.4412 89.544 80.4739C89.544 75.5066 85.7171 71.4798 80.9965 71.4798C76.2758 71.4798 72.4489 75.5066 72.4489 80.4739C72.4489 85.4412 76.2758 89.4679 80.9965 89.4679ZM80.9965 91C86.5213 91 91 86.2873 91 80.4739C91 74.6605 86.5213 69.9478 80.9965 69.9478C75.4717 69.9478 70.9929 74.6605 70.9929 80.4739C70.9929 86.2873 75.4717 91 80.9965 91Z" fill="white" fill-opacity="0.9"/>
<path fill-rule="evenodd" clip-rule="evenodd" d="M79.9901 31.0525L79.2655 30.9783C79.2886 30.7291 79.3004 30.4762 79.3004 30.2201C79.3004 29.9641 79.2886 29.7112 79.2655 29.462L79.9901 29.3878C80.0154 29.6616 80.0284 29.9393 80.0284 30.2201C80.0284 30.501 80.0154 30.7787 79.9901 31.0525ZM79.683 27.7551L78.9863 27.9773C78.8457 27.4893 78.6605 27.0216 78.4355 26.5795L79.0772 26.2178C79.3246 26.7039 79.5284 27.2183 79.683 27.7551ZM78.1974 24.8348L77.6349 25.3211C77.3296 24.9301 76.9884 24.5711 76.6168 24.2498L77.079 23.658C77.4872 24.0109 77.862 24.4052 78.1974 24.8348ZM75.7646 22.7322L75.4209 23.4075C75.0008 23.1707 74.5563 22.9758 74.0926 22.8279L74.3036 22.0948C74.8138 22.2574 75.3027 22.4718 75.7646 22.7322ZM72.7521 21.7716L72.6815 22.5341C72.4447 22.5098 72.2043 22.4974 71.961 22.4974C71.7177 22.4974 71.4773 22.5098 71.2405 22.5341L71.17 21.7716C71.4302 21.745 71.6941 21.7314 71.961 21.7314C72.2279 21.7314 72.4918 21.745 72.7521 21.7716ZM69.6184 22.0948L69.8295 22.8279C69.3657 22.9758 68.9213 23.1707 68.5011 23.4075L68.1574 22.7322C68.6193 22.4718 69.1082 22.2574 69.6184 22.0948ZM66.843 23.658L67.3052 24.2498C66.9336 24.5711 66.5924 24.9301 66.2871 25.3211L65.7246 24.8348C66.0601 24.4052 66.4348 24.0109 66.843 23.658ZM64.8448 26.2178L65.4865 26.5795C65.2615 27.0216 65.0763 27.4893 64.9358 27.9773L64.239 27.7551C64.3936 27.2183 64.5974 26.7039 64.8448 26.2178ZM63.9319 29.3878C63.9066 29.6616 63.8936 29.9393 63.8936 30.2201C63.8936 30.501 63.9066 30.7787 63.9319 31.0525L64.6565 30.9783C64.6335 30.7291 64.6216 30.4762 64.6216 30.2201C64.6216 29.9641 64.6335 29.7112 64.6565 29.462L63.9319 29.3878ZM64.239 32.6852L64.9358 32.463C65.0763 32.951 65.2615 33.4187 65.4865 33.8608L64.8448 34.2224C64.5974 33.7364 64.3936 33.222 64.239 32.6852ZM65.7246 35.6055L66.2871 35.1192C66.5924 35.5102 66.9336 35.8692 67.3052 36.1904L66.843 36.7823C66.4348 36.4294 66.0601 36.035 65.7246 35.6055ZM68.1574 37.7081L68.5011 37.0328C68.9213 37.2696 69.3657 37.4645 69.8295 37.6124L69.6184 38.3455C69.1082 38.1829 68.6193 37.9684 68.1574 37.7081ZM71.17 38.6686L71.2405 37.9062C71.4773 37.9305 71.7177 37.9429 71.961 37.9429C72.2043 37.9429 72.4447 37.9305 72.6815 37.9062L72.7521 38.6686C72.4918 38.6953 72.2279 38.7089 71.961 38.7089C71.6941 38.7089 71.4302 38.6953 71.17 38.6686ZM74.3036 38.3455L74.0926 37.6124C74.5563 37.4645 75.0008 37.2696 75.4209 37.0328L75.7646 37.7081C75.3027 37.9684 74.8138 38.1829 74.3036 38.3455ZM77.079 36.7823L76.6168 36.1904C76.9884 35.8692 77.3296 35.5102 77.6349 35.1192L78.1974 35.6055C77.862 36.035 77.4872 36.4294 77.079 36.7823ZM79.0772 34.2224L78.4355 33.8608C78.6605 33.4187 78.8457 32.951 78.9863 32.463L79.683 32.6852C79.5284 33.222 79.3246 33.7364 79.0772 34.2224Z" fill="white" fill-opacity="0.9"/>
<path fill-rule="evenodd" clip-rule="evenodd" d="M30.0142 44.6662L15.4929 16.823L16.1312 16.4545L30.6524 44.2977L30.0142 44.6662ZM67.3159 36.9954L49.5677 48.8797L49.1769 48.2335L66.925 36.3491L67.3159 36.9954Z" fill="white" fill-opacity="0.9"/>
<path fill-rule="evenodd" clip-rule="evenodd" d="M6.09107 72.2934L10.2861 16.9465L11.0118 17.0074L6.81676 72.3543L6.09107 72.2934ZM74.9026 37.9739L79.4204 70.5708L78.7 70.6814L74.1823 38.0844L74.9026 37.9739ZM72.1141 76.0583L47.5893 62.4763L47.9283 61.7984L72.4531 75.3805L72.1141 76.0583ZM10.4496 74.0407L28.1978 61.8169L28.5965 62.4578L10.8483 74.6817L10.4496 74.0407ZM71.6382 81.5352H12.2624V80.7692H71.6382V81.5352Z" fill="white" fill-opacity="0.9"/>
<path fill-rule="evenodd" clip-rule="evenodd" d="M74.9282 72.5937L19.7475 13.5117L20.2667 12.9747L75.4475 72.0567L74.9282 72.5937Z" fill="white" fill-opacity="0.9"/>
<path fill-rule="evenodd" clip-rule="evenodd" d="M65.3816 25.8262L21.1725 8.84861L21.422 8.12901L65.6312 25.1066L65.3816 25.8262Z" fill="white" fill-opacity="0.9"/>
</svg>
