<svg width="32" height="32" viewBox="0 0 32 32" fill="none" xmlns="http://www.w3.org/2000/svg">
<path d="M16 31.5556C12.9234 31.5556 9.91588 30.6433 7.35778 28.934C4.79969 27.2247 2.80589 24.7953 1.62853 21.9529C0.451167 19.1105 0.143116 15.9828 0.74333 12.9653C1.34354 9.9478 2.82507 7.17607 5.00055 5.00058C7.17603 2.8251 9.94777 1.34358 12.9652 0.743361C15.9827 0.143146 19.1104 0.451198 21.9528 1.62856C24.7952 2.80592 27.2247 4.79972 28.934 7.35782C30.6432 9.91592 31.5555 12.9234 31.5555 16C31.5529 20.1248 29.9131 24.0798 26.9965 26.9965C24.0798 29.9132 20.1248 31.5529 16 31.5556ZM16 1.13178C13.0593 1.13178 10.1847 2.00379 7.73964 3.63753C5.29457 5.27127 3.38887 7.59338 2.26353 10.3102C1.13818 13.027 0.843744 16.0165 1.41744 18.9007C1.99113 21.7848 3.40719 24.4341 5.48656 26.5135C7.56592 28.5928 10.2152 30.0089 13.0993 30.5826C15.9835 31.1563 18.973 30.8618 21.6898 29.7365C24.4066 28.6111 26.7287 26.7054 28.3625 24.2604C29.9962 21.8153 30.8682 18.9407 30.8682 16C30.8655 12.0575 29.2982 8.2773 26.5105 5.48954C23.7227 2.70179 19.9425 1.13446 16 1.13178Z" fill="white"/>
<path d="M17.2735 30.0293C14.5087 30.0293 11.8061 29.2095 9.50727 27.6735C7.20847 26.1375 5.41677 23.9543 4.35875 21.4C3.30073 18.8457 3.02391 16.035 3.56328 13.3234C4.10266 10.6118 5.43401 8.12104 7.38897 6.16607C9.34394 4.2111 11.8347 2.87976 14.5463 2.34038C17.2579 1.80101 20.0686 2.07783 22.6229 3.13585C25.1772 4.19387 27.3604 5.98557 28.8964 8.28437C30.4324 10.5832 31.2522 13.2858 31.2522 16.0506C31.2495 19.7571 29.7759 23.3111 27.155 25.9321C24.534 28.553 20.98 30.0266 17.2735 30.0293ZM17.2735 2.67824C14.6267 2.67824 12.0393 3.4631 9.83858 4.93358C7.63785 6.40406 5.92259 8.49411 4.90971 10.9394C3.89682 13.3847 3.63181 16.0755 4.14817 18.6714C4.66453 21.2674 5.93909 23.6519 7.81065 25.5235C9.68222 27.395 12.0667 28.6696 14.6627 29.1859C17.2586 29.7023 19.9494 29.4373 22.3947 28.4244C24.84 27.4115 26.9301 25.6963 28.4005 23.4955C29.871 21.2948 30.6559 18.7075 30.6559 16.0607C30.6505 12.5131 29.2389 9.1123 26.7304 6.60376C24.2218 4.09523 20.8211 2.68358 17.2735 2.67824Z" fill="white"/>
<path d="M18.5471 28.5132C16.0943 28.5132 13.6965 27.7858 11.657 26.423C9.61746 25.0603 8.02787 23.1234 7.08919 20.8572C6.15051 18.591 5.90491 16.0974 6.38345 13.6917C6.86198 11.2859 8.04316 9.07608 9.77761 7.34163C11.5121 5.60718 13.7219 4.42601 16.1276 3.94747C18.5334 3.46894 21.027 3.71454 23.2932 4.65322C25.5593 5.5919 27.4963 7.18149 28.859 9.22099C30.2218 11.2605 30.9491 13.6583 30.9491 16.1112C30.9465 19.3996 29.639 22.5525 27.3137 24.8777C24.9885 27.203 21.8355 28.5105 18.5471 28.5132ZM18.5471 4.25498C16.1925 4.255 13.8908 4.95375 11.9336 6.26277C9.9763 7.57178 8.45151 9.43217 7.55229 11.6083C6.65306 13.7845 6.41984 16.1786 6.88216 18.4874C7.34448 20.7962 8.48154 22.9159 10.1494 24.5781C11.8172 26.2402 13.9407 27.3701 16.2511 27.8245C18.5615 28.279 20.9548 28.0376 23.1279 27.131C25.301 26.2244 27.1562 24.6933 28.4585 22.7316C29.7608 20.7699 30.4518 18.4658 30.4438 16.1112C30.4384 12.9586 29.183 9.93676 26.9528 7.70848C24.7226 5.48019 21.6997 4.22733 18.5471 4.22466" fill="white"/>
<path d="M19.8205 26.987C17.6815 26.987 15.5905 26.3527 13.812 25.1643C12.0335 23.9759 10.6473 22.2868 9.82869 20.3106C9.01012 18.3344 8.79594 16.1599 9.21325 14.0619C9.63055 11.964 10.6606 10.0369 12.1731 8.52443C13.6856 7.01191 15.6127 5.98187 17.7106 5.56456C19.8085 5.14726 21.9831 5.36144 23.9593 6.18001C25.9355 6.99858 27.6246 8.38477 28.813 10.1633C30.0013 11.9418 30.6356 14.0328 30.6356 16.1719C30.6356 17.5921 30.3559 18.9985 29.8124 20.3106C29.2689 21.6228 28.4722 22.815 27.468 23.8193C26.4637 24.8236 25.2714 25.6202 23.9593 26.1637C22.6472 26.7072 21.2408 26.987 19.8205 26.987ZM19.8205 5.76106C17.7615 5.76106 15.7487 6.37164 14.0366 7.51559C12.3246 8.65955 10.9902 10.2855 10.2022 12.1878C9.41425 14.0901 9.20808 16.1834 9.60978 18.2029C10.0115 20.2224 11.003 22.0774 12.459 23.5334C13.915 24.9894 15.77 25.9809 17.7895 26.3826C19.809 26.7843 21.9023 26.5781 23.8046 25.7902C25.7069 25.0022 27.3328 23.6678 28.4768 21.9558C29.6208 20.2437 30.2313 18.2309 30.2313 16.1719C30.2327 14.8043 29.9643 13.4499 29.4416 12.1862C28.9188 10.9225 28.152 9.77434 27.185 8.80735C26.2181 7.84035 25.0698 7.07355 23.8062 6.55082C22.5425 6.0281 21.1881 5.75973 19.8205 5.76106Z" fill="white"/>
<path d="M21.0942 25.4708C19.2671 25.4708 17.4809 24.929 15.9617 23.9139C14.4425 22.8988 13.2584 21.456 12.5591 19.7679C11.8599 18.0798 11.6769 16.2223 12.0334 14.4302C12.3899 12.6382 13.2697 10.992 14.5617 9.70005C15.8537 8.40805 17.4999 7.52818 19.2919 7.17172C21.084 6.81525 22.9415 6.9982 24.6296 7.69743C26.3177 8.39666 27.7605 9.58076 28.7756 11.1C29.7907 12.6192 30.3325 14.4054 30.3325 16.2325C30.3299 18.6819 29.3557 21.0301 27.6237 22.7621C25.8918 24.494 23.5436 25.4682 21.0942 25.4708ZM21.0942 7.27722C19.3286 7.27522 17.602 7.79696 16.133 8.77643C14.664 9.75591 13.5185 11.1491 12.8414 12.7798C12.1643 14.4104 11.9862 16.2052 12.3294 17.9372C12.6726 19.6691 13.5218 21.2603 14.7696 22.5095C16.0174 23.7587 17.6077 24.6098 19.3392 24.955C21.0708 25.3001 22.8658 25.124 24.4972 24.4488C26.1286 23.7736 27.5231 22.6296 28.5043 21.1617C29.4854 19.6938 30.0091 17.9678 30.0091 16.2022C30.0104 15.0306 29.7808 13.8703 29.3334 12.7875C28.886 11.7048 28.2295 10.7208 27.4016 9.8919C26.5736 9.063 25.5904 8.40543 24.5081 7.95679C23.4259 7.50814 22.2658 7.27722 21.0942 7.27722Z" fill="white"/>
<path d="M22.3677 23.9445C20.8524 23.9445 19.3711 23.4952 18.1112 22.6533C16.8512 21.8115 15.8692 20.6149 15.2893 19.2149C14.7095 17.815 14.5577 16.2745 14.8534 14.7883C15.149 13.3021 15.8787 11.937 16.9502 10.8655C18.0216 9.79399 19.3868 9.0643 20.873 8.76868C22.3592 8.47306 23.8997 8.62478 25.2996 9.20466C26.6996 9.78455 27.8962 10.7665 28.738 12.0265C29.5799 13.2864 30.0292 14.7677 30.0292 16.283C30.0292 18.315 29.222 20.2637 27.7852 21.7005C26.3484 23.1373 24.3997 23.9445 22.3677 23.9445ZM22.3677 8.85394C20.8942 8.84393 19.451 9.2717 18.221 10.083C16.991 10.8943 16.0297 12.0527 15.4589 13.4111C14.8881 14.7695 14.7335 16.2668 15.0148 17.7132C15.2961 19.1596 16.0006 20.4898 17.039 21.5353C18.0773 22.5807 19.4027 23.2943 20.8472 23.5854C22.2916 23.8766 23.7899 23.7323 25.1522 23.1707C26.5145 22.6092 27.6793 21.6557 28.499 20.4313C29.3187 19.2069 29.7563 17.7666 29.7563 16.2931C29.7537 14.3236 28.9701 12.4356 27.5774 11.0429C26.1848 9.65028 24.2967 8.86672 22.3273 8.86405" fill="white"/>
</svg>
